<svg xmlns="http://www.w3.org/2000/svg" viewBox="0 0 1200 360" preserveAspectRatio="xMidYMid slice" role="img" aria-label="Aqua Current">
<defs><linearGradient id="gaquacurrent" x1="0" y1="0" x2="1" y2="1"><stop stop-color="#0c4563"/><stop offset="1" stop-color="#237fa6"/></linearGradient><radialGradient id="raquacurrent" cx="28%" cy="10%" r="90%"><stop stop-color="#fff" stop-opacity=".24"/><stop offset="1" stop-color="#000" stop-opacity=".1"/></radialGradient></defs>
<rect width="1200" height="360" fill="url(#gaquacurrent)"/><rect width="1200" height="360" fill="url(#raquacurrent)"/><path d="M-30 270Q180 80 400 220t420-30 410-50" fill="none" stroke="#83daf2" stroke-opacity=".22" stroke-width="45"/><circle cx="692" cy="277" r="5" fill="#83daf2" opacity=".24"/><circle cx="391" cy="316" r="6" fill="#83daf2" opacity=".24"/><circle cx="409" cy="317" r="7" fill="#83daf2" opacity=".36"/><circle cx="793" cy="256" r="7" fill="#83daf2" opacity=".24"/><circle cx="720" cy="92" r="4" fill="#83daf2" opacity=".30"/><circle cx="712" cy="180" r="2" fill="#83daf2" opacity=".45"/><circle cx="549" cy="212" r="7" fill="#83daf2" opacity=".18"/><circle cx="391" cy="235" r="5" fill="#83daf2" opacity=".18"/><circle cx="488" cy="257" r="6" fill="#83daf2" opacity=".45"/><circle cx="880" cy="145" r="3" fill="#83daf2" opacity=".36"/><circle cx="616" cy="152" r="6" fill="#83daf2" opacity=".36"/><circle cx="348" cy="243" r="3" fill="#83daf2" opacity=".24"/><path d="M-30 175Q140 65 310 175t340 0 340 0 340 0" fill="none" stroke="#83daf2" stroke-opacity=".5" stroke-width="38"/><path d="M-30 225Q140 115 310 225t340 0 340 0 340 0" fill="none" stroke="#fff" stroke-opacity=".22" stroke-width="16"/><path d="M-30 337C180 285 330 365 520 310s395-6 720-120v190H-30z" fill="#081018" opacity=".14"/><path d="M0 22h1200" stroke="#fff" stroke-opacity=".13" stroke-width="2"/>
</svg>