<svg xmlns="http://www.w3.org/2000/svg" viewBox="0 0 1200 360" preserveAspectRatio="xMidYMid slice" role="img" aria-label="Arena Lights">
<defs><linearGradient id="garenalights" x1="0" y1="0" x2="1" y2="1"><stop stop-color="#17203a"/><stop offset="1" stop-color="#506aa0"/></linearGradient><radialGradient id="rarenalights" cx="28%" cy="10%" r="90%"><stop stop-color="#fff" stop-opacity=".24"/><stop offset="1" stop-color="#000" stop-opacity=".1"/></radialGradient></defs>
<rect width="1200" height="360" fill="url(#garenalights)"/><rect width="1200" height="360" fill="url(#rarenalights)"/><path d="m100 60 22 13v25l-22 13-22-13v-25z" fill="none" stroke="#e8dfbf" stroke-opacity=".22" stroke-width="3"/><path d="m160 100 22 13v25l-22 13-22-13v-25z" fill="none" stroke="#e8dfbf" stroke-opacity=".22" stroke-width="3"/><path d="m220 60 22 13v25l-22 13-22-13v-25z" fill="none" stroke="#e8dfbf" stroke-opacity=".22" stroke-width="3"/><path d="m900 65 22 13v25l-22 13-22-13v-25z" fill="none" stroke="#e8dfbf" stroke-opacity=".22" stroke-width="3"/><path d="m960 105 22 13v25l-22 13-22-13v-25z" fill="none" stroke="#e8dfbf" stroke-opacity=".22" stroke-width="3"/><path d="m1020 65 22 13v25l-22 13-22-13v-25z" fill="none" stroke="#e8dfbf" stroke-opacity=".22" stroke-width="3"/><path d="m740 240 22 13v25l-22 13-22-13v-25z" fill="none" stroke="#e8dfbf" stroke-opacity=".22" stroke-width="3"/><circle cx="818" cy="272" r="8" fill="#e8dfbf" opacity=".30"/><circle cx="878" cy="150" r="5" fill="#e8dfbf" opacity=".36"/><circle cx="1131" cy="252" r="5" fill="#e8dfbf" opacity=".36"/><circle cx="866" cy="221" r="4" fill="#e8dfbf" opacity=".45"/><circle cx="708" cy="195" r="8" fill="#e8dfbf" opacity=".45"/><circle cx="119" cy="271" r="5" fill="#e8dfbf" opacity=".36"/><circle cx="1114" cy="306" r="2" fill="#e8dfbf" opacity=".45"/><circle cx="936" cy="145" r="4" fill="#e8dfbf" opacity=".24"/><circle cx="254" cy="142" r="4" fill="#e8dfbf" opacity=".45"/><circle cx="588" cy="310" r="3" fill="#e8dfbf" opacity=".45"/><circle cx="84" cy="201" r="7" fill="#e8dfbf" opacity=".24"/><circle cx="891" cy="98" r="4" fill="#e8dfbf" opacity=".24"/><path d="M80 0 320 360M300 0 480 360M900 0 720 360M1120 0 880 360" stroke="#fff" stroke-opacity=".2" stroke-width="50"/><path d="M600 40 630 100l66 10-48 47 12 66-60-31-60 31 12-66-48-47 66-10z" fill="#e8dfbf" opacity=".55"/><path d="M100 315Q600 180 1100 315" fill="none" stroke="#e8dfbf" stroke-opacity=".45" stroke-width="10"/><path d="M-30 337C180 285 330 365 520 310s395-6 720-120v190H-30z" fill="#081018" opacity=".14"/><path d="M0 22h1200" stroke="#fff" stroke-opacity=".13" stroke-width="2"/>
</svg>