<svg xmlns="http://www.w3.org/2000/svg" viewBox="0 0 1200 360" preserveAspectRatio="xMidYMid slice" role="img" aria-label="Aurora Crown">
<defs><linearGradient id="gauroracrown" x1="0" y1="0" x2="1" y2="1"><stop stop-color="#1d4164"/><stop offset="1" stop-color="#4fa7a5"/></linearGradient><radialGradient id="rauroracrown" cx="28%" cy="10%" r="90%"><stop stop-color="#fff" stop-opacity=".24"/><stop offset="1" stop-color="#000" stop-opacity=".1"/></radialGradient></defs>
<rect width="1200" height="360" fill="url(#gauroracrown)"/><rect width="1200" height="360" fill="url(#rauroracrown)"/><g opacity=".2"><rect x="665" y="155" width="77" height="12" fill="#9f7de2"/><rect x="375" y="288" width="165" height="12" fill="#9f7de2"/><rect x="321" y="212" width="113" height="12" fill="#9f7de2"/><rect x="1065" y="80" width="101" height="20" fill="#9f7de2"/><rect x="985" y="271" width="73" height="18" fill="#9f7de2"/><rect x="620" y="316" width="48" height="14" fill="#9f7de2"/><rect x="283" y="33" width="169" height="14" fill="#9f7de2"/><rect x="314" y="290" width="36" height="10" fill="#9f7de2"/><rect x="194" y="220" width="90" height="7" fill="#9f7de2"/><rect x="482" y="109" width="155" height="18" fill="#9f7de2"/><rect x="126" y="73" width="92" height="7" fill="#9f7de2"/></g><circle cx="309" cy="142" r="5" fill="#9f7de2" opacity=".45"/><circle cx="876" cy="280" r="4" fill="#9f7de2" opacity=".30"/><circle cx="347" cy="197" r="5" fill="#9f7de2" opacity=".45"/><circle cx="413" cy="70" r="6" fill="#9f7de2" opacity=".36"/><circle cx="72" cy="302" r="4" fill="#9f7de2" opacity=".36"/><circle cx="963" cy="162" r="5" fill="#9f7de2" opacity=".36"/><circle cx="282" cy="205" r="8" fill="#9f7de2" opacity=".36"/><circle cx="103" cy="76" r="4" fill="#9f7de2" opacity=".45"/><circle cx="250" cy="279" r="2" fill="#9f7de2" opacity=".30"/><circle cx="603" cy="46" r="5" fill="#9f7de2" opacity=".36"/><circle cx="1059" cy="233" r="8" fill="#9f7de2" opacity=".18"/><circle cx="218" cy="75" r="5" fill="#9f7de2" opacity=".24"/><path d="M-30 280Q170 20 400 210t420-40 410-60" fill="none" stroke="#64f1c4" stroke-opacity=".34" stroke-width="52"/><path d="M-30 300Q170 40 400 230t420-40 410-60" fill="none" stroke="#9f7de2" stroke-opacity=".35" stroke-width="30"/><path d="M490 205 535 95l65 75 65-75 45 110-110 60z" fill="#fff" opacity=".3"/><path d="M-30 337C180 285 330 365 520 310s395-6 720-120v190H-30z" fill="#081018" opacity=".14"/><path d="M0 22h1200" stroke="#fff" stroke-opacity=".13" stroke-width="2"/>
</svg>