<svg xmlns="http://www.w3.org/2000/svg" viewBox="0 0 1200 360" preserveAspectRatio="xMidYMid slice" role="img" aria-label="Battle Impact">
<defs><linearGradient id="gbattleimpact" x1="0" y1="0" x2="1" y2="1"><stop stop-color="#732b35"/><stop offset="1" stop-color="#d85b4d"/></linearGradient><radialGradient id="rbattleimpact" cx="28%" cy="10%" r="90%"><stop stop-color="#fff" stop-opacity=".24"/><stop offset="1" stop-color="#000" stop-opacity=".1"/></radialGradient></defs>
<rect width="1200" height="360" fill="url(#gbattleimpact)"/><rect width="1200" height="360" fill="url(#rbattleimpact)"/><g fill="none" stroke="#ffb15c" stroke-opacity=".2"><circle cx="600" cy="180" r="40"/><circle cx="600" cy="180" r="80"/><circle cx="600" cy="180" r="130"/><circle cx="600" cy="180" r="190"/><circle cx="600" cy="180" r="260"/></g><circle cx="256" cy="275" r="2" fill="#ffb15c" opacity=".45"/><circle cx="110" cy="93" r="4" fill="#ffb15c" opacity=".24"/><circle cx="902" cy="67" r="2" fill="#ffb15c" opacity=".30"/><circle cx="519" cy="245" r="2" fill="#ffb15c" opacity=".45"/><circle cx="832" cy="276" r="8" fill="#ffb15c" opacity=".30"/><circle cx="139" cy="114" r="6" fill="#ffb15c" opacity=".24"/><circle cx="689" cy="210" r="2" fill="#ffb15c" opacity=".45"/><circle cx="687" cy="206" r="3" fill="#ffb15c" opacity=".45"/><circle cx="414" cy="130" r="5" fill="#ffb15c" opacity=".24"/><circle cx="691" cy="106" r="8" fill="#ffb15c" opacity=".45"/><circle cx="559" cy="42" r="2" fill="#ffb15c" opacity=".30"/><circle cx="992" cy="265" r="6" fill="#ffb15c" opacity=".18"/><path d="M600 180 0 20M600 180 0 340M600 180 1200 20M600 180 1200 340M600 180 300 0M600 180 900 0M600 180 300 360M600 180 900 360" stroke="#ffb15c" stroke-opacity=".5" stroke-width="9"/><path d="m600 70 33 70 77-12-56 54 37 71-78-21-44 67-8-79-80-10 68-43-28-74 72 35z" fill="#ffb15c" opacity=".5"/><path d="M-30 337C180 285 330 365 520 310s395-6 720-120v190H-30z" fill="#081018" opacity=".14"/><path d="M0 22h1200" stroke="#fff" stroke-opacity=".13" stroke-width="2"/>
</svg>