<svg xmlns="http://www.w3.org/2000/svg" viewBox="0 0 1200 360" preserveAspectRatio="xMidYMid slice" role="img" aria-label="Champion Hall">
<defs><linearGradient id="gchampionhall" x1="0" y1="0" x2="1" y2="1"><stop stop-color="#5d4725"/><stop offset="1" stop-color="#c99b42"/></linearGradient><radialGradient id="rchampionhall" cx="28%" cy="10%" r="90%"><stop stop-color="#fff" stop-opacity=".24"/><stop offset="1" stop-color="#000" stop-opacity=".1"/></radialGradient></defs>
<rect width="1200" height="360" fill="url(#gchampionhall)"/><rect width="1200" height="360" fill="url(#rchampionhall)"/><path d="M-80 80q180-130 360 0t360 0 360 0 360 0" fill="none" stroke="#f7dc8c" stroke-opacity=".18" stroke-width="3"/><path d="M-80 130q180-130 360 0t360 0 360 0 360 0" fill="none" stroke="#f7dc8c" stroke-opacity=".18" stroke-width="3"/><path d="M-80 185q180-130 360 0t360 0 360 0 360 0" fill="none" stroke="#f7dc8c" stroke-opacity=".18" stroke-width="3"/><path d="M-80 245q180-130 360 0t360 0 360 0 360 0" fill="none" stroke="#f7dc8c" stroke-opacity=".18" stroke-width="3"/><path d="M-80 300q180-130 360 0t360 0 360 0 360 0" fill="none" stroke="#f7dc8c" stroke-opacity=".18" stroke-width="3"/><circle cx="584" cy="289" r="3" fill="#f7dc8c" opacity=".24"/><circle cx="392" cy="279" r="8" fill="#f7dc8c" opacity=".30"/><circle cx="873" cy="198" r="4" fill="#f7dc8c" opacity=".24"/><circle cx="365" cy="152" r="6" fill="#f7dc8c" opacity=".18"/><circle cx="732" cy="312" r="7" fill="#f7dc8c" opacity=".24"/><circle cx="918" cy="122" r="2" fill="#f7dc8c" opacity=".30"/><circle cx="129" cy="253" r="8" fill="#f7dc8c" opacity=".30"/><circle cx="337" cy="75" r="5" fill="#f7dc8c" opacity=".36"/><circle cx="262" cy="137" r="7" fill="#f7dc8c" opacity=".45"/><circle cx="761" cy="101" r="3" fill="#f7dc8c" opacity=".36"/><circle cx="441" cy="123" r="8" fill="#f7dc8c" opacity=".36"/><circle cx="1014" cy="143" r="3" fill="#f7dc8c" opacity=".30"/><path d="M80 0 320 360M300 0 480 360M900 0 720 360M1120 0 880 360" stroke="#fff" stroke-opacity=".2" stroke-width="50"/><path d="M600 40 630 100l66 10-48 47 12 66-60-31-60 31 12-66-48-47 66-10z" fill="#f7dc8c" opacity=".55"/><path d="M100 315Q600 180 1100 315" fill="none" stroke="#f7dc8c" stroke-opacity=".45" stroke-width="10"/><path d="M-30 337C180 285 330 365 520 310s395-6 720-120v190H-30z" fill="#081018" opacity=".14"/><path d="M0 22h1200" stroke="#fff" stroke-opacity=".13" stroke-width="2"/>
</svg>