<svg xmlns="http://www.w3.org/2000/svg" viewBox="0 0 1200 360" preserveAspectRatio="xMidYMid slice" role="img" aria-label="Crystal Flow">
<defs><linearGradient id="gcrystalflow" x1="0" y1="0" x2="1" y2="1"><stop stop-color="#d7eff2"/><stop offset="1" stop-color="#829ed0"/></linearGradient><radialGradient id="rcrystalflow" cx="28%" cy="10%" r="90%"><stop stop-color="#fff" stop-opacity=".24"/><stop offset="1" stop-color="#000" stop-opacity=".1"/></radialGradient></defs>
<rect width="1200" height="360" fill="url(#gcrystalflow)"/><rect width="1200" height="360" fill="url(#rcrystalflow)"/><path d="m100 60 22 13v25l-22 13-22-13v-25z" fill="none" stroke="#ffffff" stroke-opacity=".22" stroke-width="3"/><path d="m160 100 22 13v25l-22 13-22-13v-25z" fill="none" stroke="#ffffff" stroke-opacity=".22" stroke-width="3"/><path d="m220 60 22 13v25l-22 13-22-13v-25z" fill="none" stroke="#ffffff" stroke-opacity=".22" stroke-width="3"/><path d="m900 65 22 13v25l-22 13-22-13v-25z" fill="none" stroke="#ffffff" stroke-opacity=".22" stroke-width="3"/><path d="m960 105 22 13v25l-22 13-22-13v-25z" fill="none" stroke="#ffffff" stroke-opacity=".22" stroke-width="3"/><path d="m1020 65 22 13v25l-22 13-22-13v-25z" fill="none" stroke="#ffffff" stroke-opacity=".22" stroke-width="3"/><path d="m740 240 22 13v25l-22 13-22-13v-25z" fill="none" stroke="#ffffff" stroke-opacity=".22" stroke-width="3"/><circle cx="1031" cy="320" r="3" fill="#ffffff" opacity=".45"/><circle cx="395" cy="59" r="6" fill="#ffffff" opacity=".45"/><circle cx="1105" cy="160" r="2" fill="#ffffff" opacity=".30"/><circle cx="819" cy="234" r="5" fill="#ffffff" opacity=".24"/><circle cx="197" cy="281" r="2" fill="#ffffff" opacity=".45"/><circle cx="793" cy="36" r="6" fill="#ffffff" opacity=".24"/><circle cx="943" cy="299" r="5" fill="#ffffff" opacity=".18"/><circle cx="618" cy="87" r="8" fill="#ffffff" opacity=".24"/><circle cx="485" cy="212" r="4" fill="#ffffff" opacity=".18"/><circle cx="687" cy="226" r="4" fill="#ffffff" opacity=".24"/><circle cx="1164" cy="288" r="7" fill="#ffffff" opacity=".36"/><circle cx="1053" cy="277" r="7" fill="#ffffff" opacity=".36"/><circle cx="600" cy="180" r="120" fill="#ffffff" opacity=".2"/><path d="M-30 337C180 285 330 365 520 310s395-6 720-120v190H-30z" fill="#081018" opacity=".14"/><path d="M0 22h1200" stroke="#fff" stroke-opacity=".13" stroke-width="2"/>
</svg>