<svg xmlns="http://www.w3.org/2000/svg" viewBox="0 0 1200 360" preserveAspectRatio="xMidYMid slice" role="img" aria-label="Dex Horizon">
<defs><linearGradient id="gdexhorizon" x1="0" y1="0" x2="1" y2="1"><stop stop-color="#742e36"/><stop offset="1" stop-color="#d35455"/></linearGradient><radialGradient id="rdexhorizon" cx="28%" cy="10%" r="90%"><stop stop-color="#fff" stop-opacity=".24"/><stop offset="1" stop-color="#000" stop-opacity=".1"/></radialGradient></defs>
<rect width="1200" height="360" fill="url(#gdexhorizon)"/><rect width="1200" height="360" fill="url(#rdexhorizon)"/><path d="M-30 270Q180 80 400 220t420-30 410-50" fill="none" stroke="#e5dce3" stroke-opacity=".22" stroke-width="45"/><circle cx="1051" cy="287" r="5" fill="#e5dce3" opacity=".24"/><circle cx="411" cy="74" r="2" fill="#e5dce3" opacity=".30"/><circle cx="809" cy="173" r="4" fill="#e5dce3" opacity=".45"/><circle cx="973" cy="128" r="2" fill="#e5dce3" opacity=".30"/><circle cx="556" cy="128" r="8" fill="#e5dce3" opacity=".30"/><circle cx="84" cy="69" r="6" fill="#e5dce3" opacity=".18"/><circle cx="217" cy="74" r="6" fill="#e5dce3" opacity=".30"/><circle cx="449" cy="159" r="2" fill="#e5dce3" opacity=".18"/><circle cx="467" cy="284" r="2" fill="#e5dce3" opacity=".36"/><circle cx="519" cy="299" r="8" fill="#e5dce3" opacity=".18"/><circle cx="179" cy="154" r="4" fill="#e5dce3" opacity=".18"/><circle cx="744" cy="184" r="2" fill="#e5dce3" opacity=".18"/><g fill="none" stroke="#e5dce3" stroke-opacity=".42" stroke-width="3"><rect x="70" y="55" width="330" height="210" rx="22"/><rect x="430" y="35" width="700" height="250" rx="26"/><circle cx="235" cy="160" r="65"/><path d="M235 85v150M160 160h150M485 90h210M485 130h330M485 170h250M485 230h560"/></g><path d="M-30 337C180 285 330 365 520 310s395-6 720-120v190H-30z" fill="#081018" opacity=".14"/><path d="M0 22h1200" stroke="#fff" stroke-opacity=".13" stroke-width="2"/>
</svg>