<svg xmlns="http://www.w3.org/2000/svg" viewBox="0 0 1200 360" preserveAspectRatio="xMidYMid slice" role="img" aria-label="Dragon Rift">
<defs><linearGradient id="gdragonrift" x1="0" y1="0" x2="1" y2="1"><stop stop-color="#3b285a"/><stop offset="1" stop-color="#7b3d78"/></linearGradient><radialGradient id="rdragonrift" cx="28%" cy="10%" r="90%"><stop stop-color="#fff" stop-opacity=".24"/><stop offset="1" stop-color="#000" stop-opacity=".1"/></radialGradient></defs>
<rect width="1200" height="360" fill="url(#gdragonrift)"/><rect width="1200" height="360" fill="url(#rdragonrift)"/><g fill="none" stroke="#ef6d90" stroke-opacity=".2" stroke-width="4"><path d="M50 260h200l60-90h190l50 45h250l65-110h300"/><path d="M250 260v60M500 170V65M800 215v85M865 105v-60"/></g><circle cx="530" cy="253" r="2" fill="#ef6d90" opacity=".24"/><circle cx="1016" cy="33" r="7" fill="#ef6d90" opacity=".24"/><circle cx="516" cy="195" r="4" fill="#ef6d90" opacity=".36"/><circle cx="310" cy="236" r="7" fill="#ef6d90" opacity=".45"/><circle cx="310" cy="49" r="2" fill="#ef6d90" opacity=".18"/><circle cx="435" cy="156" r="7" fill="#ef6d90" opacity=".30"/><circle cx="540" cy="296" r="3" fill="#ef6d90" opacity=".24"/><circle cx="674" cy="214" r="7" fill="#ef6d90" opacity=".30"/><circle cx="799" cy="250" r="5" fill="#ef6d90" opacity=".24"/><circle cx="284" cy="34" r="5" fill="#ef6d90" opacity=".30"/><circle cx="1114" cy="59" r="6" fill="#ef6d90" opacity=".36"/><circle cx="764" cy="234" r="4" fill="#ef6d90" opacity=".45"/><path d="M-70 175q180-150 340-15t305-5 315 25 390-95" fill="none" stroke="#ef6d90" stroke-opacity=".58" stroke-width="30" stroke-linecap="round"/><path d="M585-20 495 110l70 44-112 91 95 28-40 107 185-162-74-48 115-98-97-26 55-66z" fill="#ef6d90" opacity=".28"/><path d="M-30 337C180 285 330 365 520 310s395-6 720-120v190H-30z" fill="#081018" opacity=".14"/><path d="M0 22h1200" stroke="#fff" stroke-opacity=".13" stroke-width="2"/>
</svg>