<svg xmlns="http://www.w3.org/2000/svg" viewBox="0 0 1200 360" preserveAspectRatio="xMidYMid slice" role="img" aria-label="Elite Chamber">
<defs><linearGradient id="gelitechamber" x1="0" y1="0" x2="1" y2="1"><stop stop-color="#1d2438"/><stop offset="1" stop-color="#4e4464"/></linearGradient><radialGradient id="relitechamber" cx="28%" cy="10%" r="90%"><stop stop-color="#fff" stop-opacity=".24"/><stop offset="1" stop-color="#000" stop-opacity=".1"/></radialGradient></defs>
<rect width="1200" height="360" fill="url(#gelitechamber)"/><rect width="1200" height="360" fill="url(#relitechamber)"/><g opacity=".2"><rect x="899" y="262" width="109" height="13" fill="#a99abb"/><rect x="307" y="133" width="70" height="21" fill="#a99abb"/><rect x="259" y="220" width="85" height="20" fill="#a99abb"/><rect x="886" y="233" width="49" height="13" fill="#a99abb"/><rect x="625" y="262" width="137" height="14" fill="#a99abb"/><rect x="109" y="161" width="52" height="25" fill="#a99abb"/><rect x="487" y="221" width="96" height="7" fill="#a99abb"/><rect x="145" y="166" width="160" height="10" fill="#a99abb"/><rect x="435" y="100" width="117" height="25" fill="#a99abb"/><rect x="134" y="86" width="41" height="8" fill="#a99abb"/><rect x="306" y="98" width="171" height="19" fill="#a99abb"/></g><circle cx="1104" cy="239" r="8" fill="#a99abb" opacity=".30"/><circle cx="761" cy="260" r="5" fill="#a99abb" opacity=".36"/><circle cx="1046" cy="264" r="5" fill="#a99abb" opacity=".18"/><circle cx="146" cy="120" r="8" fill="#a99abb" opacity=".45"/><circle cx="677" cy="213" r="4" fill="#a99abb" opacity=".36"/><circle cx="161" cy="277" r="6" fill="#a99abb" opacity=".30"/><circle cx="492" cy="46" r="7" fill="#a99abb" opacity=".45"/><circle cx="115" cy="195" r="8" fill="#a99abb" opacity=".24"/><circle cx="455" cy="204" r="6" fill="#a99abb" opacity=".18"/><circle cx="187" cy="138" r="6" fill="#a99abb" opacity=".45"/><circle cx="281" cy="236" r="4" fill="#a99abb" opacity=".30"/><circle cx="888" cy="140" r="5" fill="#a99abb" opacity=".24"/><path d="M350 360V90L600 10 850 90v270z" fill="#0d1322" opacity=".42" stroke="#a99abb" stroke-opacity=".3" stroke-width="6"/><path d="M475 360V140L600 80l125 60v220z" fill="#a99abb" opacity=".22"/><path d="M-30 337C180 285 330 365 520 310s395-6 720-120v190H-30z" fill="#081018" opacity=".14"/><path d="M0 22h1200" stroke="#fff" stroke-opacity=".13" stroke-width="2"/>
</svg>