<svg xmlns="http://www.w3.org/2000/svg" viewBox="0 0 1200 360" preserveAspectRatio="xMidYMid slice" role="img" aria-label="Evoli Charm">
<defs><linearGradient id="gevolicharm" x1="0" y1="0" x2="1" y2="1"><stop stop-color="#b57b5e"/><stop offset="1" stop-color="#e7b991"/></linearGradient><radialGradient id="revolicharm" cx="28%" cy="10%" r="90%"><stop stop-color="#fff" stop-opacity=".24"/><stop offset="1" stop-color="#000" stop-opacity=".1"/></radialGradient></defs>
<rect width="1200" height="360" fill="url(#gevolicharm)"/><rect width="1200" height="360" fill="url(#revolicharm)"/><g fill="#f8e5cf" opacity=".18"><path d="M60 90l35-55 35 55-35 55z"/><path d="M230 250l35-55 35 55-35 55z"/><path d="M810 80l35-55 35 55-35 55z"/><path d="M1020 230l35-55 35 55-35 55z"/></g><circle cx="69" cy="60" r="6" fill="#f8e5cf" opacity=".36"/><circle cx="500" cy="315" r="4" fill="#f8e5cf" opacity=".18"/><circle cx="82" cy="107" r="7" fill="#f8e5cf" opacity=".30"/><circle cx="1152" cy="205" r="2" fill="#f8e5cf" opacity=".18"/><circle cx="170" cy="177" r="2" fill="#f8e5cf" opacity=".30"/><circle cx="314" cy="246" r="8" fill="#f8e5cf" opacity=".45"/><circle cx="558" cy="197" r="7" fill="#f8e5cf" opacity=".18"/><circle cx="574" cy="212" r="8" fill="#f8e5cf" opacity=".18"/><circle cx="1122" cy="278" r="7" fill="#f8e5cf" opacity=".30"/><circle cx="967" cy="31" r="4" fill="#f8e5cf" opacity=".30"/><circle cx="978" cy="86" r="5" fill="#f8e5cf" opacity=".45"/><circle cx="1110" cy="280" r="2" fill="#f8e5cf" opacity=".24"/><g fill="#f8e5cf" opacity=".35"><path d="M260 100q45-65 90 0-45 65-90 0z"/><path d="M820 90q50-72 100 0-50 72-100 0z"/><path d="M500 270q35-50 70 0-35 50-70 0z"/></g><path d="M0 310Q230 110 470 290t730-110" fill="none" stroke="#f8e5cf" stroke-opacity=".32" stroke-width="24"/><path d="M-30 337C180 285 330 365 520 310s395-6 720-120v190H-30z" fill="#081018" opacity=".14"/><path d="M0 22h1200" stroke="#fff" stroke-opacity=".13" stroke-width="2"/>
</svg>