<svg xmlns="http://www.w3.org/2000/svg" viewBox="0 0 1200 360" preserveAspectRatio="xMidYMid slice" role="img" aria-label="Evolution Pulse">
<defs><linearGradient id="gevolutionpulse" x1="0" y1="0" x2="1" y2="1"><stop stop-color="#353d78"/><stop offset="1" stop-color="#7d72c7"/></linearGradient><radialGradient id="revolutionpulse" cx="28%" cy="10%" r="90%"><stop stop-color="#fff" stop-opacity=".24"/><stop offset="1" stop-color="#000" stop-opacity=".1"/></radialGradient></defs>
<rect width="1200" height="360" fill="url(#gevolutionpulse)"/><rect width="1200" height="360" fill="url(#revolutionpulse)"/><g stroke="#d8d8ff" stroke-opacity=".16" stroke-width="5"><path d="M-200 360 40 0"/><path d="M-20 360 220 0"/><path d="M160 360 400 0"/><path d="M340 360 580 0"/><path d="M520 360 760 0"/><path d="M700 360 940 0"/><path d="M880 360 1120 0"/><path d="M1060 360 1300 0"/></g><circle cx="1056" cy="221" r="2" fill="#d8d8ff" opacity=".30"/><circle cx="413" cy="297" r="3" fill="#d8d8ff" opacity=".30"/><circle cx="928" cy="279" r="6" fill="#d8d8ff" opacity=".36"/><circle cx="860" cy="38" r="7" fill="#d8d8ff" opacity=".36"/><circle cx="836" cy="30" r="8" fill="#d8d8ff" opacity=".45"/><circle cx="1081" cy="275" r="2" fill="#d8d8ff" opacity=".24"/><circle cx="585" cy="317" r="8" fill="#d8d8ff" opacity=".30"/><circle cx="598" cy="320" r="8" fill="#d8d8ff" opacity=".36"/><circle cx="79" cy="243" r="8" fill="#d8d8ff" opacity=".18"/><circle cx="1100" cy="317" r="6" fill="#d8d8ff" opacity=".30"/><circle cx="183" cy="70" r="4" fill="#d8d8ff" opacity=".24"/><circle cx="39" cy="265" r="5" fill="#d8d8ff" opacity=".18"/><g fill="none" stroke="#d8d8ff" stroke-opacity=".45" stroke-width="5"><circle cx="600" cy="180" r="55"/><circle cx="600" cy="180" r="105"/><circle cx="600" cy="180" r="165"/><circle cx="600" cy="180" r="230"/></g><path d="M-30 337C180 285 330 365 520 310s395-6 720-120v190H-30z" fill="#081018" opacity=".14"/><path d="M0 22h1200" stroke="#fff" stroke-opacity=".13" stroke-width="2"/>
</svg>