<svg xmlns="http://www.w3.org/2000/svg" viewBox="0 0 1200 360" preserveAspectRatio="xMidYMid slice" role="img" aria-label="Frozen Core">
<defs><linearGradient id="gfrozencore" x1="0" y1="0" x2="1" y2="1"><stop stop-color="#537b9d"/><stop offset="1" stop-color="#b9e8ee"/></linearGradient><radialGradient id="rfrozencore" cx="28%" cy="10%" r="90%"><stop stop-color="#fff" stop-opacity=".24"/><stop offset="1" stop-color="#000" stop-opacity=".1"/></radialGradient></defs>
<rect width="1200" height="360" fill="url(#gfrozencore)"/><rect width="1200" height="360" fill="url(#rfrozencore)"/><path d="M-80 80q180-130 360 0t360 0 360 0 360 0" fill="none" stroke="#ffffff" stroke-opacity=".18" stroke-width="3"/><path d="M-80 130q180-130 360 0t360 0 360 0 360 0" fill="none" stroke="#ffffff" stroke-opacity=".18" stroke-width="3"/><path d="M-80 185q180-130 360 0t360 0 360 0 360 0" fill="none" stroke="#ffffff" stroke-opacity=".18" stroke-width="3"/><path d="M-80 245q180-130 360 0t360 0 360 0 360 0" fill="none" stroke="#ffffff" stroke-opacity=".18" stroke-width="3"/><path d="M-80 300q180-130 360 0t360 0 360 0 360 0" fill="none" stroke="#ffffff" stroke-opacity=".18" stroke-width="3"/><circle cx="1008" cy="285" r="4" fill="#ffffff" opacity=".45"/><circle cx="1063" cy="214" r="7" fill="#ffffff" opacity=".18"/><circle cx="704" cy="131" r="5" fill="#ffffff" opacity=".30"/><circle cx="1042" cy="94" r="3" fill="#ffffff" opacity=".45"/><circle cx="968" cy="78" r="8" fill="#ffffff" opacity=".24"/><circle cx="154" cy="306" r="6" fill="#ffffff" opacity=".18"/><circle cx="648" cy="204" r="7" fill="#ffffff" opacity=".30"/><circle cx="771" cy="64" r="8" fill="#ffffff" opacity=".24"/><circle cx="77" cy="135" r="2" fill="#ffffff" opacity=".30"/><circle cx="102" cy="113" r="2" fill="#ffffff" opacity=".45"/><circle cx="1104" cy="202" r="7" fill="#ffffff" opacity=".30"/><circle cx="107" cy="310" r="7" fill="#ffffff" opacity=".24"/><path d="M600 40v280M475 100l250 160M475 260l250-160" stroke="#ffffff" stroke-opacity=".65" stroke-width="10"/><path d="M80 330 180 80l75 250M930 330l95-260 100 260" fill="#ffffff" opacity=".22"/><path d="M-30 337C180 285 330 365 520 310s395-6 720-120v190H-30z" fill="#081018" opacity=".14"/><path d="M0 22h1200" stroke="#fff" stroke-opacity=".13" stroke-width="2"/>
</svg>