<svg xmlns="http://www.w3.org/2000/svg" viewBox="0 0 1200 360" preserveAspectRatio="xMidYMid slice" role="img" aria-label="Gengar Night">
<defs><linearGradient id="ggengarnight" x1="0" y1="0" x2="1" y2="1"><stop stop-color="#342148"/><stop offset="1" stop-color="#693d79"/></linearGradient><radialGradient id="rgengarnight" cx="28%" cy="10%" r="90%"><stop stop-color="#fff" stop-opacity=".24"/><stop offset="1" stop-color="#000" stop-opacity=".1"/></radialGradient></defs>
<rect width="1200" height="360" fill="url(#ggengarnight)"/><rect width="1200" height="360" fill="url(#rgengarnight)"/><g fill="none" stroke="#a95ca3" stroke-opacity=".2" stroke-width="4"><path d="M50 260h200l60-90h190l50 45h250l65-110h300"/><path d="M250 260v60M500 170V65M800 215v85M865 105v-60"/></g><circle cx="1169" cy="248" r="2" fill="#a95ca3" opacity=".36"/><circle cx="295" cy="159" r="4" fill="#a95ca3" opacity=".24"/><circle cx="813" cy="261" r="4" fill="#a95ca3" opacity=".24"/><circle cx="974" cy="286" r="2" fill="#a95ca3" opacity=".30"/><circle cx="752" cy="173" r="7" fill="#a95ca3" opacity=".18"/><circle cx="787" cy="298" r="8" fill="#a95ca3" opacity=".30"/><circle cx="518" cy="125" r="3" fill="#a95ca3" opacity=".24"/><circle cx="1030" cy="144" r="6" fill="#a95ca3" opacity=".18"/><circle cx="1016" cy="205" r="7" fill="#a95ca3" opacity=".24"/><circle cx="350" cy="98" r="6" fill="#a95ca3" opacity=".30"/><circle cx="425" cy="228" r="6" fill="#a95ca3" opacity=".36"/><circle cx="784" cy="269" r="2" fill="#a95ca3" opacity=".24"/><path d="M220 315v-95q0-75 75-75t75 75v95l-37-32-38 32-38-32zM900 305v-75q0-60 60-60t60 60v75l-30-25-30 25-30-25z" fill="#a95ca3" opacity=".32"/><path d="M435 185 560 155l-55 70M765 185 640 155l55 70" fill="#a95ca3" opacity=".45"/><path d="M-30 337C180 285 330 365 520 310s395-6 720-120v190H-30z" fill="#081018" opacity=".14"/><path d="M0 22h1200" stroke="#fff" stroke-opacity=".13" stroke-width="2"/>
</svg>