<svg xmlns="http://www.w3.org/2000/svg" viewBox="0 0 1200 360" preserveAspectRatio="xMidYMid slice" role="img" aria-label="Glitch Legend">
<defs><linearGradient id="gglitchlegend" x1="0" y1="0" x2="1" y2="1"><stop stop-color="#171824"/><stop offset="1" stop-color="#5b244e"/></linearGradient><radialGradient id="rglitchlegend" cx="28%" cy="10%" r="90%"><stop stop-color="#fff" stop-opacity=".24"/><stop offset="1" stop-color="#000" stop-opacity=".1"/></radialGradient></defs>
<rect width="1200" height="360" fill="url(#gglitchlegend)"/><rect width="1200" height="360" fill="url(#rglitchlegend)"/><path d="M-80 80q180-130 360 0t360 0 360 0 360 0" fill="none" stroke="#ff3dc8" stroke-opacity=".18" stroke-width="3"/><path d="M-80 130q180-130 360 0t360 0 360 0 360 0" fill="none" stroke="#ff3dc8" stroke-opacity=".18" stroke-width="3"/><path d="M-80 185q180-130 360 0t360 0 360 0 360 0" fill="none" stroke="#ff3dc8" stroke-opacity=".18" stroke-width="3"/><path d="M-80 245q180-130 360 0t360 0 360 0 360 0" fill="none" stroke="#ff3dc8" stroke-opacity=".18" stroke-width="3"/><path d="M-80 300q180-130 360 0t360 0 360 0 360 0" fill="none" stroke="#ff3dc8" stroke-opacity=".18" stroke-width="3"/><circle cx="941" cy="246" r="2" fill="#ff3dc8" opacity=".24"/><circle cx="152" cy="101" r="2" fill="#ff3dc8" opacity=".45"/><circle cx="708" cy="161" r="6" fill="#ff3dc8" opacity=".36"/><circle cx="591" cy="30" r="7" fill="#ff3dc8" opacity=".18"/><circle cx="85" cy="277" r="7" fill="#ff3dc8" opacity=".24"/><circle cx="584" cy="185" r="7" fill="#ff3dc8" opacity=".18"/><circle cx="869" cy="73" r="8" fill="#ff3dc8" opacity=".36"/><circle cx="443" cy="55" r="7" fill="#ff3dc8" opacity=".24"/><circle cx="1135" cy="95" r="2" fill="#ff3dc8" opacity=".45"/><circle cx="331" cy="50" r="5" fill="#ff3dc8" opacity=".30"/><circle cx="279" cy="245" r="4" fill="#ff3dc8" opacity=".30"/><circle cx="1051" cy="126" r="2" fill="#ff3dc8" opacity=".45"/><rect x="0" y="45" width="330" height="15" fill="#ff3dc8" opacity=".7"/><rect x="190" y="90" width="490" height="13" fill="#ff3dc8" opacity=".5"/><rect x="620" y="30" width="580" height="19" fill="#ff3dc8" opacity=".6"/><rect x="80" y="175" width="640" height="10" fill="#ff3dc8" opacity=".3"/><rect x="750" y="135" width="450" height="17" fill="#ff3dc8" opacity=".5"/><rect x="0" y="280" width="520" height="21" fill="#ff3dc8" opacity=".6"/><rect x="570" y="250" width="630" height="12" fill="#ff3dc8" opacity=".3"/><path d="M-30 337C180 285 330 365 520 310s395-6 720-120v190H-30z" fill="#081018" opacity=".14"/><path d="M0 22h1200" stroke="#fff" stroke-opacity=".13" stroke-width="2"/>
</svg>