<svg xmlns="http://www.w3.org/2000/svg" viewBox="0 0 1200 360" preserveAspectRatio="xMidYMid slice" role="img" aria-label="Glurak Blaze">
<defs><linearGradient id="gglurakblaze" x1="0" y1="0" x2="1" y2="1"><stop stop-color="#5f202c"/><stop offset="1" stop-color="#b42e2f"/></linearGradient><radialGradient id="rglurakblaze" cx="28%" cy="10%" r="90%"><stop stop-color="#fff" stop-opacity=".24"/><stop offset="1" stop-color="#000" stop-opacity=".1"/></radialGradient></defs>
<rect width="1200" height="360" fill="url(#gglurakblaze)"/><rect width="1200" height="360" fill="url(#rglurakblaze)"/><g stroke="#f07835" stroke-opacity=".16" stroke-width="5"><path d="M-200 360 40 0"/><path d="M-20 360 220 0"/><path d="M160 360 400 0"/><path d="M340 360 580 0"/><path d="M520 360 760 0"/><path d="M700 360 940 0"/><path d="M880 360 1120 0"/><path d="M1060 360 1300 0"/></g><circle cx="521" cy="90" r="5" fill="#f07835" opacity=".45"/><circle cx="284" cy="265" r="5" fill="#f07835" opacity=".45"/><circle cx="806" cy="222" r="8" fill="#f07835" opacity=".30"/><circle cx="1123" cy="196" r="8" fill="#f07835" opacity=".36"/><circle cx="727" cy="164" r="3" fill="#f07835" opacity=".30"/><circle cx="371" cy="72" r="3" fill="#f07835" opacity=".45"/><circle cx="631" cy="210" r="5" fill="#f07835" opacity=".36"/><circle cx="1085" cy="62" r="6" fill="#f07835" opacity=".24"/><circle cx="662" cy="121" r="3" fill="#f07835" opacity=".30"/><circle cx="384" cy="79" r="8" fill="#f07835" opacity=".30"/><circle cx="265" cy="298" r="2" fill="#f07835" opacity=".36"/><circle cx="71" cy="192" r="6" fill="#f07835" opacity=".18"/><path d="M170 340 300 70l55 95 65-150 70 160 70-105 115 270z" fill="#f07835" opacity=".38"/><path d="M0 305 160 220l120 25 100-135 85 82 110-52 155 126 160-65 310 80" fill="none" stroke="#f07835" stroke-opacity=".65" stroke-width="7"/><path d="M-30 337C180 285 330 365 520 310s395-6 720-120v190H-30z" fill="#081018" opacity=".14"/><path d="M0 22h1200" stroke="#fff" stroke-opacity=".13" stroke-width="2"/>
</svg>