<svg xmlns="http://www.w3.org/2000/svg" viewBox="0 0 1200 360" preserveAspectRatio="xMidYMid slice" role="img" aria-label="Hexa Pulse">
<defs><linearGradient id="ghexapulse" x1="0" y1="0" x2="1" y2="1"><stop stop-color="#18283f"/><stop offset="1" stop-color="#3b6f84"/></linearGradient><radialGradient id="rhexapulse" cx="28%" cy="10%" r="90%"><stop stop-color="#fff" stop-opacity=".24"/><stop offset="1" stop-color="#000" stop-opacity=".1"/></radialGradient></defs>
<rect width="1200" height="360" fill="url(#ghexapulse)"/><rect width="1200" height="360" fill="url(#rhexapulse)"/><path d="M-80 80q180-130 360 0t360 0 360 0 360 0" fill="none" stroke="#54d8d4" stroke-opacity=".18" stroke-width="3"/><path d="M-80 130q180-130 360 0t360 0 360 0 360 0" fill="none" stroke="#54d8d4" stroke-opacity=".18" stroke-width="3"/><path d="M-80 185q180-130 360 0t360 0 360 0 360 0" fill="none" stroke="#54d8d4" stroke-opacity=".18" stroke-width="3"/><path d="M-80 245q180-130 360 0t360 0 360 0 360 0" fill="none" stroke="#54d8d4" stroke-opacity=".18" stroke-width="3"/><path d="M-80 300q180-130 360 0t360 0 360 0 360 0" fill="none" stroke="#54d8d4" stroke-opacity=".18" stroke-width="3"/><circle cx="583" cy="224" r="8" fill="#54d8d4" opacity=".18"/><circle cx="786" cy="70" r="8" fill="#54d8d4" opacity=".45"/><circle cx="353" cy="67" r="8" fill="#54d8d4" opacity=".24"/><circle cx="966" cy="277" r="4" fill="#54d8d4" opacity=".45"/><circle cx="739" cy="263" r="7" fill="#54d8d4" opacity=".18"/><circle cx="382" cy="173" r="2" fill="#54d8d4" opacity=".24"/><circle cx="944" cy="100" r="6" fill="#54d8d4" opacity=".36"/><circle cx="62" cy="111" r="3" fill="#54d8d4" opacity=".24"/><circle cx="1056" cy="141" r="4" fill="#54d8d4" opacity=".30"/><circle cx="215" cy="222" r="7" fill="#54d8d4" opacity=".24"/><circle cx="640" cy="181" r="3" fill="#54d8d4" opacity=".30"/><circle cx="454" cy="310" r="4" fill="#54d8d4" opacity=".30"/><circle cx="600" cy="180" r="120" fill="#54d8d4" opacity=".2"/><path d="M-30 337C180 285 330 365 520 310s395-6 720-120v190H-30z" fill="#081018" opacity=".14"/><path d="M0 22h1200" stroke="#fff" stroke-opacity=".13" stroke-width="2"/>
</svg>