<svg xmlns="http://www.w3.org/2000/svg" viewBox="0 0 1200 360" preserveAspectRatio="xMidYMid slice" role="img" aria-label="Holo Champion">
<defs><linearGradient id="gholochampion" x1="0" y1="0" x2="1" y2="1"><stop stop-color="#4b3b69"/><stop offset="1" stop-color="#57b6bf"/></linearGradient><radialGradient id="rholochampion" cx="28%" cy="10%" r="90%"><stop stop-color="#fff" stop-opacity=".24"/><stop offset="1" stop-color="#000" stop-opacity=".1"/></radialGradient></defs>
<rect width="1200" height="360" fill="url(#gholochampion)"/><rect width="1200" height="360" fill="url(#rholochampion)"/><g stroke="#f6cf68" stroke-opacity=".16" stroke-width="5"><path d="M-200 360 40 0"/><path d="M-20 360 220 0"/><path d="M160 360 400 0"/><path d="M340 360 580 0"/><path d="M520 360 760 0"/><path d="M700 360 940 0"/><path d="M880 360 1120 0"/><path d="M1060 360 1300 0"/></g><circle cx="553" cy="62" r="7" fill="#f6cf68" opacity=".18"/><circle cx="1007" cy="139" r="2" fill="#f6cf68" opacity=".30"/><circle cx="843" cy="293" r="8" fill="#f6cf68" opacity=".45"/><circle cx="735" cy="302" r="7" fill="#f6cf68" opacity=".36"/><circle cx="927" cy="84" r="5" fill="#f6cf68" opacity=".30"/><circle cx="903" cy="173" r="2" fill="#f6cf68" opacity=".45"/><circle cx="895" cy="42" r="4" fill="#f6cf68" opacity=".24"/><circle cx="812" cy="66" r="8" fill="#f6cf68" opacity=".45"/><circle cx="638" cy="199" r="8" fill="#f6cf68" opacity=".30"/><circle cx="602" cy="253" r="7" fill="#f6cf68" opacity=".18"/><circle cx="636" cy="200" r="2" fill="#f6cf68" opacity=".30"/><circle cx="896" cy="249" r="5" fill="#f6cf68" opacity=".30"/><g opacity=".3"><path d="M0 330 280 20l220 340M260 360 600 0l300 360M650 360 980 20l220 300" fill="none" stroke="#fff" stroke-width="45"/></g><path d="M600 40 640 115l85 13-62 60 15 84-78-40-78 40 15-84-62-60 85-13z" fill="#f6cf68" opacity=".6"/><path d="M-30 337C180 285 330 365 520 310s395-6 720-120v190H-30z" fill="#081018" opacity=".14"/><path d="M0 22h1200" stroke="#fff" stroke-opacity=".13" stroke-width="2"/>
</svg>