<svg xmlns="http://www.w3.org/2000/svg" viewBox="0 0 1200 360" preserveAspectRatio="xMidYMid slice" role="img" aria-label="Inferno Crest">
<defs><linearGradient id="ginfernocrest" x1="0" y1="0" x2="1" y2="1"><stop stop-color="#431d1b"/><stop offset="1" stop-color="#9b3127"/></linearGradient><radialGradient id="rinfernocrest" cx="28%" cy="10%" r="90%"><stop stop-color="#fff" stop-opacity=".24"/><stop offset="1" stop-color="#000" stop-opacity=".1"/></radialGradient></defs>
<rect width="1200" height="360" fill="url(#ginfernocrest)"/><rect width="1200" height="360" fill="url(#rinfernocrest)"/><g fill="#f38a32" opacity=".18"><path d="M120 60q4 16 20 20-16 4-20 20-4-16-20-20 16-4 20-20z"/><path d="M330 230q4 16 20 20-16 4-20 20-4-16-20-20 16-4 20-20z"/><path d="M620 70q4 16 20 20-16 4-20 20-4-16-20-20 16-4 20-20z"/><path d="M900 220q4 16 20 20-16 4-20 20-4-16-20-20 16-4 20-20z"/><path d="M1090 50q4 16 20 20-16 4-20 20-4-16-20-20 16-4 20-20z"/></g><circle cx="751" cy="44" r="6" fill="#f38a32" opacity=".30"/><circle cx="485" cy="320" r="3" fill="#f38a32" opacity=".36"/><circle cx="304" cy="296" r="6" fill="#f38a32" opacity=".36"/><circle cx="562" cy="188" r="6" fill="#f38a32" opacity=".24"/><circle cx="931" cy="181" r="5" fill="#f38a32" opacity=".36"/><circle cx="862" cy="199" r="4" fill="#f38a32" opacity=".45"/><circle cx="673" cy="151" r="2" fill="#f38a32" opacity=".36"/><circle cx="1011" cy="313" r="5" fill="#f38a32" opacity=".30"/><circle cx="720" cy="43" r="4" fill="#f38a32" opacity=".36"/><circle cx="455" cy="285" r="7" fill="#f38a32" opacity=".45"/><circle cx="472" cy="134" r="4" fill="#f38a32" opacity=".24"/><circle cx="981" cy="48" r="2" fill="#f38a32" opacity=".30"/><path d="M170 340 300 70l55 95 65-150 70 160 70-105 115 270z" fill="#f38a32" opacity=".38"/><path d="M0 305 160 220l120 25 100-135 85 82 110-52 155 126 160-65 310 80" fill="none" stroke="#f38a32" stroke-opacity=".65" stroke-width="7"/><path d="M-30 337C180 285 330 365 520 310s395-6 720-120v190H-30z" fill="#081018" opacity=".14"/><path d="M0 22h1200" stroke="#fff" stroke-opacity=".13" stroke-width="2"/>
</svg>