<svg xmlns="http://www.w3.org/2000/svg" viewBox="0 0 1200 360" preserveAspectRatio="xMidYMid slice" role="img" aria-label="Infinity Vault">
<defs><linearGradient id="ginfinityvault" x1="0" y1="0" x2="1" y2="1"><stop stop-color="#1a2437"/><stop offset="1" stop-color="#40526a"/></linearGradient><radialGradient id="rinfinityvault" cx="28%" cy="10%" r="90%"><stop stop-color="#fff" stop-opacity=".24"/><stop offset="1" stop-color="#000" stop-opacity=".1"/></radialGradient></defs>
<rect width="1200" height="360" fill="url(#ginfinityvault)"/><rect width="1200" height="360" fill="url(#rinfinityvault)"/><g fill="#8dd0c1" opacity=".18"><path d="M120 60q4 16 20 20-16 4-20 20-4-16-20-20 16-4 20-20z"/><path d="M330 230q4 16 20 20-16 4-20 20-4-16-20-20 16-4 20-20z"/><path d="M620 70q4 16 20 20-16 4-20 20-4-16-20-20 16-4 20-20z"/><path d="M900 220q4 16 20 20-16 4-20 20-4-16-20-20 16-4 20-20z"/><path d="M1090 50q4 16 20 20-16 4-20 20-4-16-20-20 16-4 20-20z"/></g><circle cx="739" cy="103" r="8" fill="#8dd0c1" opacity=".24"/><circle cx="1038" cy="121" r="5" fill="#8dd0c1" opacity=".36"/><circle cx="377" cy="206" r="2" fill="#8dd0c1" opacity=".45"/><circle cx="1024" cy="86" r="6" fill="#8dd0c1" opacity=".18"/><circle cx="1086" cy="316" r="2" fill="#8dd0c1" opacity=".36"/><circle cx="461" cy="134" r="8" fill="#8dd0c1" opacity=".30"/><circle cx="551" cy="128" r="8" fill="#8dd0c1" opacity=".30"/><circle cx="702" cy="308" r="2" fill="#8dd0c1" opacity=".30"/><circle cx="942" cy="114" r="7" fill="#8dd0c1" opacity=".24"/><circle cx="283" cy="128" r="4" fill="#8dd0c1" opacity=".36"/><circle cx="490" cy="315" r="6" fill="#8dd0c1" opacity=".18"/><circle cx="647" cy="241" r="8" fill="#8dd0c1" opacity=".24"/><g fill="none" stroke="#8dd0c1" stroke-opacity=".34"><circle cx="600" cy="180" r="145" stroke-width="7"/><circle cx="600" cy="180" r="105"/><circle cx="600" cy="180" r="68" stroke-width="5"/></g><path d="M505 180q45-72 95 0 50-72 95 0-45 72-95 0-50 72-95 0z" fill="none" stroke="#8dd0c1" stroke-opacity=".72" stroke-width="15"/><path d="M-30 337C180 285 330 365 520 310s395-6 720-120v190H-30z" fill="#081018" opacity=".14"/><path d="M0 22h1200" stroke="#fff" stroke-opacity=".13" stroke-width="2"/>
</svg>