<svg xmlns="http://www.w3.org/2000/svg" viewBox="0 0 1200 360" preserveAspectRatio="xMidYMid slice" role="img" aria-label="Iron Forge">
<defs><linearGradient id="gironforge" x1="0" y1="0" x2="1" y2="1"><stop stop-color="#555e67"/><stop offset="1" stop-color="#9da7ae"/></linearGradient><radialGradient id="rironforge" cx="28%" cy="10%" r="90%"><stop stop-color="#fff" stop-opacity=".24"/><stop offset="1" stop-color="#000" stop-opacity=".1"/></radialGradient></defs>
<rect width="1200" height="360" fill="url(#gironforge)"/><rect width="1200" height="360" fill="url(#rironforge)"/><g fill="#d9e2e7" opacity=".18"><path d="M60 90l35-55 35 55-35 55z"/><path d="M230 250l35-55 35 55-35 55z"/><path d="M810 80l35-55 35 55-35 55z"/><path d="M1020 230l35-55 35 55-35 55z"/></g><circle cx="927" cy="65" r="2" fill="#d9e2e7" opacity=".30"/><circle cx="1110" cy="305" r="8" fill="#d9e2e7" opacity=".24"/><circle cx="263" cy="219" r="5" fill="#d9e2e7" opacity=".30"/><circle cx="628" cy="73" r="6" fill="#d9e2e7" opacity=".45"/><circle cx="714" cy="68" r="8" fill="#d9e2e7" opacity=".45"/><circle cx="1072" cy="261" r="2" fill="#d9e2e7" opacity=".36"/><circle cx="492" cy="257" r="3" fill="#d9e2e7" opacity=".36"/><circle cx="348" cy="306" r="8" fill="#d9e2e7" opacity=".18"/><circle cx="360" cy="110" r="7" fill="#d9e2e7" opacity=".45"/><circle cx="196" cy="69" r="5" fill="#d9e2e7" opacity=".18"/><circle cx="488" cy="256" r="4" fill="#d9e2e7" opacity=".45"/><circle cx="130" cy="75" r="8" fill="#d9e2e7" opacity=".30"/><g fill="#fff" opacity=".16" stroke="#d9e2e7" stroke-opacity=".35" stroke-width="3"><rect x="40" y="40" width="340" height="125" rx="10"/><rect x="420" y="20" width="350" height="150" rx="10"/><rect x="800" y="55" width="350" height="130" rx="10"/><rect x="150" y="210" width="420" height="110" rx="10"/><rect x="610" y="200" width="430" height="120" rx="10"/></g><path d="M-30 337C180 285 330 365 520 310s395-6 720-120v190H-30z" fill="#081018" opacity=".14"/><path d="M0 22h1200" stroke="#fff" stroke-opacity=".13" stroke-width="2"/>
</svg>