<svg xmlns="http://www.w3.org/2000/svg" viewBox="0 0 1200 360" preserveAspectRatio="xMidYMid slice" role="img" aria-label="Lucario Aura">
<defs><linearGradient id="glucarioaura" x1="0" y1="0" x2="1" y2="1"><stop stop-color="#254a78"/><stop offset="1" stop-color="#4289c2"/></linearGradient><radialGradient id="rlucarioaura" cx="28%" cy="10%" r="90%"><stop stop-color="#fff" stop-opacity=".24"/><stop offset="1" stop-color="#000" stop-opacity=".1"/></radialGradient></defs>
<rect width="1200" height="360" fill="url(#glucarioaura)"/><rect width="1200" height="360" fill="url(#rlucarioaura)"/><g fill="#9bd4f1" opacity=".18"><path d="M120 60q4 16 20 20-16 4-20 20-4-16-20-20 16-4 20-20z"/><path d="M330 230q4 16 20 20-16 4-20 20-4-16-20-20 16-4 20-20z"/><path d="M620 70q4 16 20 20-16 4-20 20-4-16-20-20 16-4 20-20z"/><path d="M900 220q4 16 20 20-16 4-20 20-4-16-20-20 16-4 20-20z"/><path d="M1090 50q4 16 20 20-16 4-20 20-4-16-20-20 16-4 20-20z"/></g><circle cx="788" cy="141" r="3" fill="#9bd4f1" opacity=".24"/><circle cx="1028" cy="189" r="8" fill="#9bd4f1" opacity=".45"/><circle cx="91" cy="183" r="5" fill="#9bd4f1" opacity=".18"/><circle cx="438" cy="235" r="2" fill="#9bd4f1" opacity=".18"/><circle cx="1162" cy="158" r="2" fill="#9bd4f1" opacity=".24"/><circle cx="816" cy="186" r="4" fill="#9bd4f1" opacity=".36"/><circle cx="598" cy="243" r="3" fill="#9bd4f1" opacity=".45"/><circle cx="790" cy="317" r="5" fill="#9bd4f1" opacity=".24"/><circle cx="362" cy="125" r="4" fill="#9bd4f1" opacity=".18"/><circle cx="48" cy="123" r="3" fill="#9bd4f1" opacity=".24"/><circle cx="961" cy="39" r="6" fill="#9bd4f1" opacity=".30"/><circle cx="409" cy="129" r="8" fill="#9bd4f1" opacity=".45"/><circle cx="600" cy="180" r="100" fill="#9bd4f1" opacity=".25"/><circle cx="600" cy="180" r="48" fill="#fff" opacity=".42"/><path d="M510 95 445 25l35 120M690 95l65-70-35 120" fill="#172d4c" opacity=".55"/><path d="M-30 337C180 285 330 365 520 310s395-6 720-120v190H-30z" fill="#081018" opacity=".14"/><path d="M0 22h1200" stroke="#fff" stroke-opacity=".13" stroke-width="2"/>
</svg>