<svg xmlns="http://www.w3.org/2000/svg" viewBox="0 0 1200 360" preserveAspectRatio="xMidYMid slice" role="img" aria-label="Lunar Eclipse">
<defs><linearGradient id="glunareclipse" x1="0" y1="0" x2="1" y2="1"><stop stop-color="#17192e"/><stop offset="1" stop-color="#3a2851"/></linearGradient><radialGradient id="rlunareclipse" cx="28%" cy="10%" r="90%"><stop stop-color="#fff" stop-opacity=".24"/><stop offset="1" stop-color="#000" stop-opacity=".1"/></radialGradient></defs>
<rect width="1200" height="360" fill="url(#glunareclipse)"/><rect width="1200" height="360" fill="url(#rlunareclipse)"/><g fill="#d87ebf" opacity=".18"><path d="M60 90l35-55 35 55-35 55z"/><path d="M230 250l35-55 35 55-35 55z"/><path d="M810 80l35-55 35 55-35 55z"/><path d="M1020 230l35-55 35 55-35 55z"/></g><circle cx="1079" cy="231" r="8" fill="#d87ebf" opacity=".18"/><circle cx="707" cy="75" r="3" fill="#d87ebf" opacity=".36"/><circle cx="1002" cy="225" r="4" fill="#d87ebf" opacity=".30"/><circle cx="1019" cy="285" r="2" fill="#d87ebf" opacity=".18"/><circle cx="226" cy="181" r="4" fill="#d87ebf" opacity=".18"/><circle cx="377" cy="302" r="4" fill="#d87ebf" opacity=".45"/><circle cx="578" cy="128" r="6" fill="#d87ebf" opacity=".24"/><circle cx="362" cy="140" r="2" fill="#d87ebf" opacity=".30"/><circle cx="215" cy="208" r="4" fill="#d87ebf" opacity=".45"/><circle cx="1111" cy="242" r="7" fill="#d87ebf" opacity=".30"/><circle cx="467" cy="67" r="5" fill="#d87ebf" opacity=".36"/><circle cx="913" cy="280" r="5" fill="#d87ebf" opacity=".30"/><circle cx="720" cy="165" r="120" fill="#d87ebf" opacity=".35"/><circle cx="720" cy="165" r="93" fill="#0c0d18"/><circle cx="755" cy="140" r="93" fill="#3a2851"/><path d="M-30 337C180 285 330 365 520 310s395-6 720-120v190H-30z" fill="#081018" opacity=".14"/><path d="M0 22h1200" stroke="#fff" stroke-opacity=".13" stroke-width="2"/>
</svg>