<svg xmlns="http://www.w3.org/2000/svg" viewBox="0 0 1200 360" preserveAspectRatio="xMidYMid slice" role="img" aria-label="Master Sphere">
<defs><linearGradient id="gmastersphere" x1="0" y1="0" x2="1" y2="1"><stop stop-color="#3b225f"/><stop offset="1" stop-color="#7c4ba0"/></linearGradient><radialGradient id="rmastersphere" cx="28%" cy="10%" r="90%"><stop stop-color="#fff" stop-opacity=".24"/><stop offset="1" stop-color="#000" stop-opacity=".1"/></radialGradient></defs>
<rect width="1200" height="360" fill="url(#gmastersphere)"/><rect width="1200" height="360" fill="url(#rmastersphere)"/><g fill="none" stroke="#d7af44" stroke-opacity=".2" stroke-width="4"><path d="M50 260h200l60-90h190l50 45h250l65-110h300"/><path d="M250 260v60M500 170V65M800 215v85M865 105v-60"/></g><circle cx="589" cy="80" r="8" fill="#d7af44" opacity=".36"/><circle cx="481" cy="220" r="2" fill="#d7af44" opacity=".18"/><circle cx="1000" cy="109" r="4" fill="#d7af44" opacity=".36"/><circle cx="505" cy="194" r="5" fill="#d7af44" opacity=".36"/><circle cx="70" cy="263" r="5" fill="#d7af44" opacity=".30"/><circle cx="512" cy="269" r="4" fill="#d7af44" opacity=".18"/><circle cx="184" cy="47" r="4" fill="#d7af44" opacity=".30"/><circle cx="813" cy="109" r="4" fill="#d7af44" opacity=".24"/><circle cx="502" cy="151" r="2" fill="#d7af44" opacity=".45"/><circle cx="784" cy="104" r="4" fill="#d7af44" opacity=".36"/><circle cx="644" cy="274" r="3" fill="#d7af44" opacity=".45"/><circle cx="1109" cy="103" r="7" fill="#d7af44" opacity=".36"/><g transform="translate(600 180)"><circle r="120" fill="#f3f1ea" stroke="#202838" stroke-width="16"/><path d="M-120 0a120 120 0 0 1 240 0z" fill="#d7af44"/><path d="M-120 0h240" stroke="#202838" stroke-width="18"/><circle r="38" fill="#fff" stroke="#202838" stroke-width="14"/><circle r="13" fill="#d7af44"/></g><path d="M-30 337C180 285 330 365 520 310s395-6 720-120v190H-30z" fill="#081018" opacity=".14"/><path d="M0 22h1200" stroke="#fff" stroke-opacity=".13" stroke-width="2"/>
</svg>