<svg xmlns="http://www.w3.org/2000/svg" viewBox="0 0 1200 360" preserveAspectRatio="xMidYMid slice" role="img" aria-label="Mew Cosmic">
<defs><linearGradient id="gmewcosmic" x1="0" y1="0" x2="1" y2="1"><stop stop-color="#68405f"/><stop offset="1" stop-color="#ba82b2"/></linearGradient><radialGradient id="rmewcosmic" cx="28%" cy="10%" r="90%"><stop stop-color="#fff" stop-opacity=".24"/><stop offset="1" stop-color="#000" stop-opacity=".1"/></radialGradient></defs>
<rect width="1200" height="360" fill="url(#gmewcosmic)"/><rect width="1200" height="360" fill="url(#rmewcosmic)"/><g stroke="#e6d8ff" stroke-opacity=".22" fill="none"><path d="M0 60 1200 60"/><path d="M0 120 1200 120"/><path d="M0 180 1200 180"/><path d="M0 240 1200 240"/><path d="M0 300 1200 300"/><path d="M80 0 80 360"/><path d="M160 0 160 360"/><path d="M240 0 240 360"/><path d="M320 0 320 360"/><path d="M400 0 400 360"/><path d="M480 0 480 360"/><path d="M560 0 560 360"/><path d="M640 0 640 360"/><path d="M720 0 720 360"/><path d="M800 0 800 360"/><path d="M880 0 880 360"/><path d="M960 0 960 360"/><path d="M1040 0 1040 360"/><path d="M1120 0 1120 360"/></g><circle cx="692" cy="176" r="8" fill="#e6d8ff" opacity=".36"/><circle cx="970" cy="185" r="6" fill="#e6d8ff" opacity=".30"/><circle cx="805" cy="285" r="3" fill="#e6d8ff" opacity=".18"/><circle cx="1021" cy="69" r="2" fill="#e6d8ff" opacity=".36"/><circle cx="240" cy="212" r="8" fill="#e6d8ff" opacity=".45"/><circle cx="348" cy="70" r="4" fill="#e6d8ff" opacity=".18"/><circle cx="144" cy="202" r="4" fill="#e6d8ff" opacity=".18"/><circle cx="356" cy="201" r="4" fill="#e6d8ff" opacity=".30"/><circle cx="1022" cy="278" r="4" fill="#e6d8ff" opacity=".24"/><circle cx="713" cy="267" r="6" fill="#e6d8ff" opacity=".36"/><circle cx="976" cy="170" r="4" fill="#e6d8ff" opacity=".36"/><circle cx="38" cy="31" r="2" fill="#e6d8ff" opacity=".18"/><path d="M520 250q-35-65 20-105 55-40 105 5 45 42 3 85-35 36-83 5" fill="none" stroke="#e6d8ff" stroke-opacity=".48" stroke-width="20" stroke-linecap="round"/><path d="M648 235q160 60 175-70 8-74-76-80" fill="none" stroke="#e6d8ff" stroke-opacity=".38" stroke-width="14" stroke-linecap="round"/><path d="M-30 337C180 285 330 365 520 310s395-6 720-120v190H-30z" fill="#081018" opacity=".14"/><path d="M0 22h1200" stroke="#fff" stroke-opacity=".13" stroke-width="2"/>
</svg>