<svg xmlns="http://www.w3.org/2000/svg" viewBox="0 0 1200 360" preserveAspectRatio="xMidYMid slice" role="img" aria-label="Neon Grid">
<defs><linearGradient id="gneongrid" x1="0" y1="0" x2="1" y2="1"><stop stop-color="#15253e"/><stop offset="1" stop-color="#244f70"/></linearGradient><radialGradient id="rneongrid" cx="28%" cy="10%" r="90%"><stop stop-color="#fff" stop-opacity=".24"/><stop offset="1" stop-color="#000" stop-opacity=".1"/></radialGradient></defs>
<rect width="1200" height="360" fill="url(#gneongrid)"/><rect width="1200" height="360" fill="url(#rneongrid)"/><g stroke="#45e7db" stroke-opacity=".22" fill="none"><path d="M0 60 1200 60"/><path d="M0 120 1200 120"/><path d="M0 180 1200 180"/><path d="M0 240 1200 240"/><path d="M0 300 1200 300"/><path d="M80 0 80 360"/><path d="M160 0 160 360"/><path d="M240 0 240 360"/><path d="M320 0 320 360"/><path d="M400 0 400 360"/><path d="M480 0 480 360"/><path d="M560 0 560 360"/><path d="M640 0 640 360"/><path d="M720 0 720 360"/><path d="M800 0 800 360"/><path d="M880 0 880 360"/><path d="M960 0 960 360"/><path d="M1040 0 1040 360"/><path d="M1120 0 1120 360"/></g><circle cx="646" cy="203" r="6" fill="#45e7db" opacity=".36"/><circle cx="842" cy="289" r="7" fill="#45e7db" opacity=".36"/><circle cx="1015" cy="131" r="3" fill="#45e7db" opacity=".36"/><circle cx="933" cy="277" r="6" fill="#45e7db" opacity=".36"/><circle cx="277" cy="313" r="5" fill="#45e7db" opacity=".24"/><circle cx="670" cy="72" r="4" fill="#45e7db" opacity=".30"/><circle cx="69" cy="233" r="2" fill="#45e7db" opacity=".30"/><circle cx="576" cy="133" r="8" fill="#45e7db" opacity=".30"/><circle cx="146" cy="263" r="5" fill="#45e7db" opacity=".30"/><circle cx="409" cy="194" r="5" fill="#45e7db" opacity=".30"/><circle cx="334" cy="54" r="7" fill="#45e7db" opacity=".18"/><circle cx="67" cy="107" r="7" fill="#45e7db" opacity=".24"/><circle cx="600" cy="180" r="120" fill="#45e7db" opacity=".2"/><path d="M-30 337C180 285 330 365 520 310s395-6 720-120v190H-30z" fill="#081018" opacity=".14"/><path d="M0 22h1200" stroke="#fff" stroke-opacity=".13" stroke-width="2"/>
</svg>