<svg xmlns="http://www.w3.org/2000/svg" viewBox="0 0 1200 360" preserveAspectRatio="xMidYMid slice" role="img" aria-label="Obsidian Flame">
<defs><linearGradient id="gobsidianflame" x1="0" y1="0" x2="1" y2="1"><stop stop-color="#20191b"/><stop offset="1" stop-color="#5d2220"/></linearGradient><radialGradient id="robsidianflame" cx="28%" cy="10%" r="90%"><stop stop-color="#fff" stop-opacity=".24"/><stop offset="1" stop-color="#000" stop-opacity=".1"/></radialGradient></defs>
<rect width="1200" height="360" fill="url(#gobsidianflame)"/><rect width="1200" height="360" fill="url(#robsidianflame)"/><g fill="none" stroke="#e24f35" stroke-opacity=".2"><circle cx="600" cy="180" r="40"/><circle cx="600" cy="180" r="80"/><circle cx="600" cy="180" r="130"/><circle cx="600" cy="180" r="190"/><circle cx="600" cy="180" r="260"/></g><circle cx="1103" cy="53" r="3" fill="#e24f35" opacity=".30"/><circle cx="590" cy="78" r="8" fill="#e24f35" opacity=".36"/><circle cx="892" cy="236" r="7" fill="#e24f35" opacity=".18"/><circle cx="175" cy="278" r="2" fill="#e24f35" opacity=".30"/><circle cx="634" cy="60" r="8" fill="#e24f35" opacity=".30"/><circle cx="186" cy="276" r="4" fill="#e24f35" opacity=".24"/><circle cx="253" cy="72" r="2" fill="#e24f35" opacity=".36"/><circle cx="939" cy="256" r="2" fill="#e24f35" opacity=".36"/><circle cx="761" cy="269" r="2" fill="#e24f35" opacity=".30"/><circle cx="653" cy="152" r="6" fill="#e24f35" opacity=".18"/><circle cx="630" cy="68" r="3" fill="#e24f35" opacity=".18"/><circle cx="1096" cy="291" r="6" fill="#e24f35" opacity=".36"/><path d="M170 340 300 70l55 95 65-150 70 160 70-105 115 270z" fill="#e24f35" opacity=".38"/><path d="M0 305 160 220l120 25 100-135 85 82 110-52 155 126 160-65 310 80" fill="none" stroke="#e24f35" stroke-opacity=".65" stroke-width="7"/><path d="M-30 337C180 285 330 365 520 310s395-6 720-120v190H-30z" fill="#081018" opacity=".14"/><path d="M0 22h1200" stroke="#fff" stroke-opacity=".13" stroke-width="2"/>
</svg>