<svg xmlns="http://www.w3.org/2000/svg" viewBox="0 0 1200 360" preserveAspectRatio="xMidYMid slice" role="img" aria-label="Phantom Mist">
<defs><linearGradient id="gphantommist" x1="0" y1="0" x2="1" y2="1"><stop stop-color="#2b2141"/><stop offset="1" stop-color="#66517a"/></linearGradient><radialGradient id="rphantommist" cx="28%" cy="10%" r="90%"><stop stop-color="#fff" stop-opacity=".24"/><stop offset="1" stop-color="#000" stop-opacity=".1"/></radialGradient></defs>
<rect width="1200" height="360" fill="url(#gphantommist)"/><rect width="1200" height="360" fill="url(#rphantommist)"/><g stroke="#b998d0" stroke-opacity=".16" stroke-width="5"><path d="M-200 360 40 0"/><path d="M-20 360 220 0"/><path d="M160 360 400 0"/><path d="M340 360 580 0"/><path d="M520 360 760 0"/><path d="M700 360 940 0"/><path d="M880 360 1120 0"/><path d="M1060 360 1300 0"/></g><circle cx="601" cy="296" r="3" fill="#b998d0" opacity=".36"/><circle cx="278" cy="160" r="6" fill="#b998d0" opacity=".30"/><circle cx="449" cy="160" r="7" fill="#b998d0" opacity=".36"/><circle cx="489" cy="259" r="7" fill="#b998d0" opacity=".36"/><circle cx="1076" cy="266" r="6" fill="#b998d0" opacity=".45"/><circle cx="1081" cy="205" r="6" fill="#b998d0" opacity=".30"/><circle cx="78" cy="183" r="2" fill="#b998d0" opacity=".45"/><circle cx="1110" cy="201" r="5" fill="#b998d0" opacity=".24"/><circle cx="622" cy="108" r="5" fill="#b998d0" opacity=".45"/><circle cx="919" cy="113" r="8" fill="#b998d0" opacity=".36"/><circle cx="328" cy="52" r="4" fill="#b998d0" opacity=".24"/><circle cx="347" cy="72" r="7" fill="#b998d0" opacity=".36"/><path d="M220 315v-95q0-75 75-75t75 75v95l-37-32-38 32-38-32zM900 305v-75q0-60 60-60t60 60v75l-30-25-30 25-30-25z" fill="#b998d0" opacity=".32"/><path d="M435 185 560 155l-55 70M765 185 640 155l55 70" fill="#b998d0" opacity=".45"/><path d="M-30 337C180 285 330 365 520 310s395-6 720-120v190H-30z" fill="#081018" opacity=".14"/><path d="M0 22h1200" stroke="#fff" stroke-opacity=".13" stroke-width="2"/>
</svg>