<svg xmlns="http://www.w3.org/2000/svg" viewBox="0 0 1200 360" preserveAspectRatio="xMidYMid slice" role="img" aria-label="Pikachu Spark">
<defs><linearGradient id="gpikachuspark" x1="0" y1="0" x2="1" y2="1"><stop stop-color="#7d6421"/><stop offset="1" stop-color="#f1cd42"/></linearGradient><radialGradient id="rpikachuspark" cx="28%" cy="10%" r="90%"><stop stop-color="#fff" stop-opacity=".24"/><stop offset="1" stop-color="#000" stop-opacity=".1"/></radialGradient></defs>
<rect width="1200" height="360" fill="url(#gpikachuspark)"/><rect width="1200" height="360" fill="url(#rpikachuspark)"/><g fill="none" stroke="#fff2a0" stroke-opacity=".2"><circle cx="600" cy="180" r="40"/><circle cx="600" cy="180" r="80"/><circle cx="600" cy="180" r="130"/><circle cx="600" cy="180" r="190"/><circle cx="600" cy="180" r="260"/></g><circle cx="207" cy="163" r="8" fill="#fff2a0" opacity=".36"/><circle cx="641" cy="105" r="3" fill="#fff2a0" opacity=".45"/><circle cx="213" cy="244" r="4" fill="#fff2a0" opacity=".36"/><circle cx="368" cy="320" r="5" fill="#fff2a0" opacity=".30"/><circle cx="1004" cy="237" r="3" fill="#fff2a0" opacity=".36"/><circle cx="1140" cy="56" r="8" fill="#fff2a0" opacity=".18"/><circle cx="1166" cy="148" r="5" fill="#fff2a0" opacity=".36"/><circle cx="846" cy="111" r="4" fill="#fff2a0" opacity=".18"/><circle cx="303" cy="54" r="3" fill="#fff2a0" opacity=".24"/><circle cx="226" cy="61" r="5" fill="#fff2a0" opacity=".36"/><circle cx="406" cy="52" r="8" fill="#fff2a0" opacity=".18"/><circle cx="830" cy="33" r="4" fill="#fff2a0" opacity=".45"/><path d="M220 0 70 180h105L95 350l245-250H220zM820-20 650 185h120l-88 185 295-275H835z" fill="#fff2a0" opacity=".58"/><path d="M-30 337C180 285 330 365 520 310s395-6 720-120v190H-30z" fill="#081018" opacity=".14"/><path d="M0 22h1200" stroke="#fff" stroke-opacity=".13" stroke-width="2"/>
</svg>