<svg xmlns="http://www.w3.org/2000/svg" viewBox="0 0 1200 360" preserveAspectRatio="xMidYMid slice" role="img" aria-label="Pixel Storm">
<defs><linearGradient id="gpixelstorm" x1="0" y1="0" x2="1" y2="1"><stop stop-color="#191926"/><stop offset="1" stop-color="#583055"/></linearGradient><radialGradient id="rpixelstorm" cx="28%" cy="10%" r="90%"><stop stop-color="#fff" stop-opacity=".24"/><stop offset="1" stop-color="#000" stop-opacity=".1"/></radialGradient></defs>
<rect width="1200" height="360" fill="url(#gpixelstorm)"/><rect width="1200" height="360" fill="url(#rpixelstorm)"/><g opacity=".2"><rect x="585" y="215" width="125" height="10" fill="#ff4fba"/><rect x="396" y="115" width="67" height="8" fill="#ff4fba"/><rect x="1071" y="274" width="153" height="22" fill="#ff4fba"/><rect x="317" y="273" width="91" height="11" fill="#ff4fba"/><rect x="876" y="317" width="170" height="19" fill="#ff4fba"/><rect x="1076" y="218" width="161" height="24" fill="#ff4fba"/><rect x="389" y="69" width="154" height="17" fill="#ff4fba"/><rect x="1070" y="187" width="162" height="21" fill="#ff4fba"/><rect x="19" y="32" width="174" height="18" fill="#ff4fba"/><rect x="518" y="162" width="33" height="20" fill="#ff4fba"/><rect x="735" y="26" width="39" height="10" fill="#ff4fba"/></g><circle cx="875" cy="213" r="7" fill="#ff4fba" opacity=".24"/><circle cx="416" cy="187" r="2" fill="#ff4fba" opacity=".45"/><circle cx="834" cy="94" r="7" fill="#ff4fba" opacity=".18"/><circle cx="208" cy="95" r="2" fill="#ff4fba" opacity=".24"/><circle cx="921" cy="311" r="8" fill="#ff4fba" opacity=".45"/><circle cx="997" cy="144" r="3" fill="#ff4fba" opacity=".30"/><circle cx="789" cy="273" r="4" fill="#ff4fba" opacity=".30"/><circle cx="51" cy="89" r="8" fill="#ff4fba" opacity=".24"/><circle cx="891" cy="68" r="6" fill="#ff4fba" opacity=".18"/><circle cx="982" cy="318" r="5" fill="#ff4fba" opacity=".24"/><circle cx="262" cy="74" r="7" fill="#ff4fba" opacity=".36"/><circle cx="747" cy="147" r="7" fill="#ff4fba" opacity=".24"/><rect x="0" y="45" width="330" height="15" fill="#ff4fba" opacity=".7"/><rect x="190" y="90" width="490" height="13" fill="#ff4fba" opacity=".5"/><rect x="620" y="30" width="580" height="19" fill="#ff4fba" opacity=".6"/><rect x="80" y="175" width="640" height="10" fill="#ff4fba" opacity=".3"/><rect x="750" y="135" width="450" height="17" fill="#ff4fba" opacity=".5"/><rect x="0" y="280" width="520" height="21" fill="#ff4fba" opacity=".6"/><rect x="570" y="250" width="630" height="12" fill="#ff4fba" opacity=".3"/><path d="M-30 337C180 285 330 365 520 310s395-6 720-120v190H-30z" fill="#081018" opacity=".14"/><path d="M0 22h1200" stroke="#fff" stroke-opacity=".13" stroke-width="2"/>
</svg>