<svg xmlns="http://www.w3.org/2000/svg" viewBox="0 0 1200 360" preserveAspectRatio="xMidYMid slice" role="img" aria-label="Pokéball Clash">
<defs><linearGradient id="gpokeballclash" x1="0" y1="0" x2="1" y2="1"><stop stop-color="#ac3840"/><stop offset="1" stop-color="#f2f2e8"/></linearGradient><radialGradient id="rpokeballclash" cx="28%" cy="10%" r="90%"><stop stop-color="#fff" stop-opacity=".24"/><stop offset="1" stop-color="#000" stop-opacity=".1"/></radialGradient></defs>
<rect width="1200" height="360" fill="url(#gpokeballclash)"/><rect width="1200" height="360" fill="url(#rpokeballclash)"/><g fill="#314f72" opacity=".18"><path d="M60 90l35-55 35 55-35 55z"/><path d="M230 250l35-55 35 55-35 55z"/><path d="M810 80l35-55 35 55-35 55z"/><path d="M1020 230l35-55 35 55-35 55z"/></g><circle cx="417" cy="138" r="5" fill="#314f72" opacity=".24"/><circle cx="375" cy="30" r="7" fill="#314f72" opacity=".45"/><circle cx="1157" cy="228" r="2" fill="#314f72" opacity=".30"/><circle cx="1060" cy="306" r="2" fill="#314f72" opacity=".24"/><circle cx="805" cy="228" r="6" fill="#314f72" opacity=".45"/><circle cx="913" cy="178" r="2" fill="#314f72" opacity=".45"/><circle cx="904" cy="114" r="4" fill="#314f72" opacity=".45"/><circle cx="786" cy="307" r="6" fill="#314f72" opacity=".45"/><circle cx="152" cy="63" r="6" fill="#314f72" opacity=".30"/><circle cx="537" cy="250" r="4" fill="#314f72" opacity=".24"/><circle cx="789" cy="161" r="5" fill="#314f72" opacity=".45"/><circle cx="534" cy="121" r="6" fill="#314f72" opacity=".36"/><g transform="translate(600 180)"><circle r="120" fill="#f3f1ea" stroke="#202838" stroke-width="16"/><path d="M-120 0a120 120 0 0 1 240 0z" fill="#314f72"/><path d="M-120 0h240" stroke="#202838" stroke-width="18"/><circle r="38" fill="#fff" stroke="#202838" stroke-width="14"/><circle r="13" fill="#314f72"/></g><path d="M-30 337C180 285 330 365 520 310s395-6 720-120v190H-30z" fill="#081018" opacity=".14"/><path d="M0 22h1200" stroke="#fff" stroke-opacity=".13" stroke-width="2"/>
</svg>