<svg xmlns="http://www.w3.org/2000/svg" viewBox="0 0 1200 360" preserveAspectRatio="xMidYMid slice" role="img" aria-label="Prism Wave">
<defs><linearGradient id="gprismwave" x1="0" y1="0" x2="1" y2="1"><stop stop-color="#3c4e85"/><stop offset="1" stop-color="#d78bc5"/></linearGradient><radialGradient id="rprismwave" cx="28%" cy="10%" r="90%"><stop stop-color="#fff" stop-opacity=".24"/><stop offset="1" stop-color="#000" stop-opacity=".1"/></radialGradient></defs>
<rect width="1200" height="360" fill="url(#gprismwave)"/><rect width="1200" height="360" fill="url(#rprismwave)"/><g fill="none" stroke="#e8f7ff" stroke-opacity=".2"><circle cx="600" cy="180" r="40"/><circle cx="600" cy="180" r="80"/><circle cx="600" cy="180" r="130"/><circle cx="600" cy="180" r="190"/><circle cx="600" cy="180" r="260"/></g><circle cx="426" cy="34" r="6" fill="#e8f7ff" opacity=".45"/><circle cx="520" cy="79" r="3" fill="#e8f7ff" opacity=".18"/><circle cx="822" cy="75" r="6" fill="#e8f7ff" opacity=".18"/><circle cx="919" cy="106" r="2" fill="#e8f7ff" opacity=".18"/><circle cx="790" cy="65" r="4" fill="#e8f7ff" opacity=".45"/><circle cx="1056" cy="35" r="3" fill="#e8f7ff" opacity=".18"/><circle cx="1005" cy="320" r="4" fill="#e8f7ff" opacity=".30"/><circle cx="513" cy="263" r="5" fill="#e8f7ff" opacity=".24"/><circle cx="352" cy="195" r="4" fill="#e8f7ff" opacity=".18"/><circle cx="593" cy="111" r="8" fill="#e8f7ff" opacity=".45"/><circle cx="661" cy="39" r="2" fill="#e8f7ff" opacity=".18"/><circle cx="979" cy="46" r="4" fill="#e8f7ff" opacity=".45"/><g opacity=".3"><path d="M0 330 280 20l220 340M260 360 600 0l300 360M650 360 980 20l220 300" fill="none" stroke="#fff" stroke-width="45"/></g><path d="M600 40 640 115l85 13-62 60 15 84-78-40-78 40 15-84-62-60 85-13z" fill="#e8f7ff" opacity=".6"/><path d="M-30 337C180 285 330 365 520 310s395-6 720-120v190H-30z" fill="#081018" opacity=".14"/><path d="M0 22h1200" stroke="#fff" stroke-opacity=".13" stroke-width="2"/>
</svg>