<svg xmlns="http://www.w3.org/2000/svg" viewBox="0 0 1200 360" preserveAspectRatio="xMidYMid slice" role="img" aria-label="Quizmon Legacy">
<defs><linearGradient id="gquizmonlegacy" x1="0" y1="0" x2="1" y2="1"><stop stop-color="#382f4f"/><stop offset="1" stop-color="#967248"/></linearGradient><radialGradient id="rquizmonlegacy" cx="28%" cy="10%" r="90%"><stop stop-color="#fff" stop-opacity=".24"/><stop offset="1" stop-color="#000" stop-opacity=".1"/></radialGradient></defs>
<rect width="1200" height="360" fill="url(#gquizmonlegacy)"/><rect width="1200" height="360" fill="url(#rquizmonlegacy)"/><g stroke="#e2c77a" stroke-opacity=".22" fill="none"><path d="M0 60 1200 60"/><path d="M0 120 1200 120"/><path d="M0 180 1200 180"/><path d="M0 240 1200 240"/><path d="M0 300 1200 300"/><path d="M80 0 80 360"/><path d="M160 0 160 360"/><path d="M240 0 240 360"/><path d="M320 0 320 360"/><path d="M400 0 400 360"/><path d="M480 0 480 360"/><path d="M560 0 560 360"/><path d="M640 0 640 360"/><path d="M720 0 720 360"/><path d="M800 0 800 360"/><path d="M880 0 880 360"/><path d="M960 0 960 360"/><path d="M1040 0 1040 360"/><path d="M1120 0 1120 360"/></g><circle cx="161" cy="317" r="6" fill="#e2c77a" opacity=".36"/><circle cx="668" cy="192" r="5" fill="#e2c77a" opacity=".30"/><circle cx="470" cy="130" r="8" fill="#e2c77a" opacity=".18"/><circle cx="269" cy="78" r="2" fill="#e2c77a" opacity=".18"/><circle cx="978" cy="245" r="2" fill="#e2c77a" opacity=".24"/><circle cx="1059" cy="316" r="3" fill="#e2c77a" opacity=".45"/><circle cx="144" cy="253" r="4" fill="#e2c77a" opacity=".45"/><circle cx="300" cy="278" r="8" fill="#e2c77a" opacity=".45"/><circle cx="798" cy="108" r="8" fill="#e2c77a" opacity=".18"/><circle cx="439" cy="319" r="2" fill="#e2c77a" opacity=".45"/><circle cx="875" cy="218" r="2" fill="#e2c77a" opacity=".24"/><circle cx="605" cy="52" r="3" fill="#e2c77a" opacity=".30"/><g fill="none" stroke="#e2c77a" stroke-opacity=".42"><path d="M600 25 750 105l45 150-105 80H510l-105-80 45-150z" stroke-width="8"/><path d="M600 65 700 120l30 105-70 55H540l-70-55 30-105z" stroke-width="3"/><circle cx="600" cy="180" r="86" stroke-width="4"/></g><path d="M600 120a60 60 0 1 0 0 120h35v-20h-35a40 40 0 1 1 0-80h40v-20z" fill="#fff" opacity=".65"/><path d="M-30 337C180 285 330 365 520 310s395-6 720-120v190H-30z" fill="#081018" opacity=".14"/><path d="M0 22h1200" stroke="#fff" stroke-opacity=".13" stroke-width="2"/>
</svg>