<svg xmlns="http://www.w3.org/2000/svg" viewBox="0 0 1200 360" preserveAspectRatio="xMidYMid slice" role="img" aria-label="Quiz Signal">
<defs><linearGradient id="gquizsignal" x1="0" y1="0" x2="1" y2="1"><stop stop-color="#26354c"/><stop offset="1" stop-color="#557a89"/></linearGradient><radialGradient id="rquizsignal" cx="28%" cy="10%" r="90%"><stop stop-color="#fff" stop-opacity=".24"/><stop offset="1" stop-color="#000" stop-opacity=".1"/></radialGradient></defs>
<rect width="1200" height="360" fill="url(#gquizsignal)"/><rect width="1200" height="360" fill="url(#rquizsignal)"/><path d="M-80 80q180-130 360 0t360 0 360 0 360 0" fill="none" stroke="#dbd36d" stroke-opacity=".18" stroke-width="3"/><path d="M-80 130q180-130 360 0t360 0 360 0 360 0" fill="none" stroke="#dbd36d" stroke-opacity=".18" stroke-width="3"/><path d="M-80 185q180-130 360 0t360 0 360 0 360 0" fill="none" stroke="#dbd36d" stroke-opacity=".18" stroke-width="3"/><path d="M-80 245q180-130 360 0t360 0 360 0 360 0" fill="none" stroke="#dbd36d" stroke-opacity=".18" stroke-width="3"/><path d="M-80 300q180-130 360 0t360 0 360 0 360 0" fill="none" stroke="#dbd36d" stroke-opacity=".18" stroke-width="3"/><circle cx="707" cy="210" r="2" fill="#dbd36d" opacity=".18"/><circle cx="290" cy="99" r="7" fill="#dbd36d" opacity=".45"/><circle cx="1151" cy="319" r="2" fill="#dbd36d" opacity=".30"/><circle cx="996" cy="288" r="6" fill="#dbd36d" opacity=".30"/><circle cx="142" cy="238" r="3" fill="#dbd36d" opacity=".36"/><circle cx="931" cy="78" r="6" fill="#dbd36d" opacity=".30"/><circle cx="90" cy="291" r="6" fill="#dbd36d" opacity=".36"/><circle cx="530" cy="190" r="5" fill="#dbd36d" opacity=".18"/><circle cx="808" cy="219" r="8" fill="#dbd36d" opacity=".45"/><circle cx="454" cy="153" r="3" fill="#dbd36d" opacity=".24"/><circle cx="468" cy="303" r="4" fill="#dbd36d" opacity=".18"/><circle cx="669" cy="195" r="2" fill="#dbd36d" opacity=".24"/><g fill="none" stroke="#dbd36d" stroke-opacity=".42" stroke-width="3"><rect x="70" y="55" width="330" height="210" rx="22"/><rect x="430" y="35" width="700" height="250" rx="26"/><circle cx="235" cy="160" r="65"/><path d="M235 85v150M160 160h150M485 90h210M485 130h330M485 170h250M485 230h560"/></g><path d="M-30 337C180 285 330 365 520 310s395-6 720-120v190H-30z" fill="#081018" opacity=".14"/><path d="M0 22h1200" stroke="#fff" stroke-opacity=".13" stroke-width="2"/>
</svg>