<svg xmlns="http://www.w3.org/2000/svg" viewBox="0 0 1200 360" preserveAspectRatio="xMidYMid slice" role="img" aria-label="Rare Candy Pop">
<defs><linearGradient id="grarecandypop" x1="0" y1="0" x2="1" y2="1"><stop stop-color="#ef7da1"/><stop offset="1" stop-color="#f2bc6e"/></linearGradient><radialGradient id="rrarecandypop" cx="28%" cy="10%" r="90%"><stop stop-color="#fff" stop-opacity=".24"/><stop offset="1" stop-color="#000" stop-opacity=".1"/></radialGradient></defs>
<rect width="1200" height="360" fill="url(#grarecandypop)"/><rect width="1200" height="360" fill="url(#rrarecandypop)"/><g stroke="#fff2da" stroke-opacity=".22" fill="none"><path d="M0 60 1200 60"/><path d="M0 120 1200 120"/><path d="M0 180 1200 180"/><path d="M0 240 1200 240"/><path d="M0 300 1200 300"/><path d="M80 0 80 360"/><path d="M160 0 160 360"/><path d="M240 0 240 360"/><path d="M320 0 320 360"/><path d="M400 0 400 360"/><path d="M480 0 480 360"/><path d="M560 0 560 360"/><path d="M640 0 640 360"/><path d="M720 0 720 360"/><path d="M800 0 800 360"/><path d="M880 0 880 360"/><path d="M960 0 960 360"/><path d="M1040 0 1040 360"/><path d="M1120 0 1120 360"/></g><circle cx="1135" cy="261" r="3" fill="#fff2da" opacity=".30"/><circle cx="368" cy="142" r="2" fill="#fff2da" opacity=".45"/><circle cx="1041" cy="116" r="3" fill="#fff2da" opacity=".30"/><circle cx="900" cy="227" r="8" fill="#fff2da" opacity=".30"/><circle cx="688" cy="169" r="4" fill="#fff2da" opacity=".36"/><circle cx="1099" cy="319" r="8" fill="#fff2da" opacity=".30"/><circle cx="934" cy="272" r="4" fill="#fff2da" opacity=".18"/><circle cx="1025" cy="181" r="4" fill="#fff2da" opacity=".36"/><circle cx="161" cy="303" r="5" fill="#fff2da" opacity=".24"/><circle cx="1153" cy="191" r="8" fill="#fff2da" opacity=".18"/><circle cx="1135" cy="32" r="3" fill="#fff2da" opacity=".30"/><circle cx="373" cy="132" r="3" fill="#fff2da" opacity=".45"/><g transform="translate(170 110) rotate(-20)"><path d="m-40 0-26-17v34zM40 0l26-17v34z" fill="#fff" opacity=".6"/><circle r="39" fill="#fff2da" opacity=".65" stroke="#fff" stroke-opacity=".6" stroke-width="6"/></g><g transform="translate(440 245) rotate(15)"><path d="m-40 0-26-17v34zM40 0l26-17v34z" fill="#fff" opacity=".6"/><circle r="39" fill="#fff2da" opacity=".65" stroke="#fff" stroke-opacity=".6" stroke-width="6"/></g><g transform="translate(760 100) rotate(24)"><path d="m-40 0-26-17v34zM40 0l26-17v34z" fill="#fff" opacity=".6"/><circle r="39" fill="#fff2da" opacity=".65" stroke="#fff" stroke-opacity=".6" stroke-width="6"/></g><g transform="translate(1040 245) rotate(-12)"><path d="m-40 0-26-17v34zM40 0l26-17v34z" fill="#fff" opacity=".6"/><circle r="39" fill="#fff2da" opacity=".65" stroke="#fff" stroke-opacity=".6" stroke-width="6"/></g><path d="M-30 337C180 285 330 365 520 310s395-6 720-120v190H-30z" fill="#081018" opacity=".14"/><path d="M0 22h1200" stroke="#fff" stroke-opacity=".13" stroke-width="2"/>
</svg>