<svg xmlns="http://www.w3.org/2000/svg" viewBox="0 0 1200 360" preserveAspectRatio="xMidYMid slice" role="img" aria-label="Rayquaza Skyline">
<defs><linearGradient id="grayquazaskyline" x1="0" y1="0" x2="1" y2="1"><stop stop-color="#1e4d4c"/><stop offset="1" stop-color="#41906b"/></linearGradient><radialGradient id="rrayquazaskyline" cx="28%" cy="10%" r="90%"><stop stop-color="#fff" stop-opacity=".24"/><stop offset="1" stop-color="#000" stop-opacity=".1"/></radialGradient></defs>
<rect width="1200" height="360" fill="url(#grayquazaskyline)"/><rect width="1200" height="360" fill="url(#rrayquazaskyline)"/><path d="m100 60 22 13v25l-22 13-22-13v-25z" fill="none" stroke="#94d66d" stroke-opacity=".22" stroke-width="3"/><path d="m160 100 22 13v25l-22 13-22-13v-25z" fill="none" stroke="#94d66d" stroke-opacity=".22" stroke-width="3"/><path d="m220 60 22 13v25l-22 13-22-13v-25z" fill="none" stroke="#94d66d" stroke-opacity=".22" stroke-width="3"/><path d="m900 65 22 13v25l-22 13-22-13v-25z" fill="none" stroke="#94d66d" stroke-opacity=".22" stroke-width="3"/><path d="m960 105 22 13v25l-22 13-22-13v-25z" fill="none" stroke="#94d66d" stroke-opacity=".22" stroke-width="3"/><path d="m1020 65 22 13v25l-22 13-22-13v-25z" fill="none" stroke="#94d66d" stroke-opacity=".22" stroke-width="3"/><path d="m740 240 22 13v25l-22 13-22-13v-25z" fill="none" stroke="#94d66d" stroke-opacity=".22" stroke-width="3"/><circle cx="1118" cy="121" r="7" fill="#94d66d" opacity=".24"/><circle cx="1161" cy="247" r="5" fill="#94d66d" opacity=".36"/><circle cx="1109" cy="199" r="2" fill="#94d66d" opacity=".24"/><circle cx="386" cy="115" r="8" fill="#94d66d" opacity=".36"/><circle cx="614" cy="306" r="6" fill="#94d66d" opacity=".24"/><circle cx="233" cy="86" r="3" fill="#94d66d" opacity=".24"/><circle cx="275" cy="52" r="6" fill="#94d66d" opacity=".30"/><circle cx="455" cy="208" r="2" fill="#94d66d" opacity=".18"/><circle cx="212" cy="231" r="3" fill="#94d66d" opacity=".30"/><circle cx="1019" cy="91" r="6" fill="#94d66d" opacity=".18"/><circle cx="186" cy="309" r="5" fill="#94d66d" opacity=".45"/><circle cx="617" cy="305" r="5" fill="#94d66d" opacity=".30"/><g fill="#fff" opacity=".35"><ellipse cx="200" cy="230" rx="170" ry="55"/><ellipse cx="520" cy="120" rx="190" ry="62"/><ellipse cx="980" cy="240" rx="240" ry="70"/></g><path d="M40 80h310q70 0 110 35M620 270h430" fill="none" stroke="#fff" stroke-opacity=".5" stroke-width="6"/><path d="M-30 337C180 285 330 365 520 310s395-6 720-120v190H-30z" fill="#081018" opacity=".14"/><path d="M0 22h1200" stroke="#fff" stroke-opacity=".13" stroke-width="2"/>
</svg>