<svg xmlns="http://www.w3.org/2000/svg" viewBox="0 0 1200 360" preserveAspectRatio="xMidYMid slice" role="img" aria-label="Relaxo Dream">
<defs><linearGradient id="grelaxodream" x1="0" y1="0" x2="1" y2="1"><stop stop-color="#263552"/><stop offset="1" stop-color="#596b92"/></linearGradient><radialGradient id="rrelaxodream" cx="28%" cy="10%" r="90%"><stop stop-color="#fff" stop-opacity=".24"/><stop offset="1" stop-color="#000" stop-opacity=".1"/></radialGradient></defs>
<rect width="1200" height="360" fill="url(#grelaxodream)"/><rect width="1200" height="360" fill="url(#rrelaxodream)"/><path d="M-30 270Q180 80 400 220t420-30 410-50" fill="none" stroke="#cab7db" stroke-opacity=".22" stroke-width="45"/><circle cx="718" cy="295" r="2" fill="#cab7db" opacity=".45"/><circle cx="518" cy="298" r="8" fill="#cab7db" opacity=".24"/><circle cx="335" cy="70" r="8" fill="#cab7db" opacity=".18"/><circle cx="344" cy="150" r="4" fill="#cab7db" opacity=".18"/><circle cx="653" cy="93" r="4" fill="#cab7db" opacity=".36"/><circle cx="152" cy="227" r="8" fill="#cab7db" opacity=".30"/><circle cx="1118" cy="302" r="4" fill="#cab7db" opacity=".24"/><circle cx="994" cy="205" r="2" fill="#cab7db" opacity=".18"/><circle cx="933" cy="106" r="6" fill="#cab7db" opacity=".45"/><circle cx="1067" cy="272" r="3" fill="#cab7db" opacity=".24"/><circle cx="768" cy="79" r="2" fill="#cab7db" opacity=".30"/><circle cx="735" cy="42" r="2" fill="#cab7db" opacity=".36"/><circle cx="915" cy="90" r="74" fill="#cab7db" opacity=".5"/><circle cx="940" cy="70" r="74" fill="#263552"/><g fill="#cab7db" opacity=".36"><ellipse cx="250" cy="285" rx="210" ry="65"/><ellipse cx="670" cy="300" rx="265" ry="75"/><ellipse cx="1100" cy="280" rx="200" ry="62"/></g><path d="M430 85h65l-65 65h65M560 45h80l-80 80h80" fill="none" stroke="#cab7db" stroke-opacity=".65" stroke-width="12"/><path d="M-30 337C180 285 330 365 520 310s395-6 720-120v190H-30z" fill="#081018" opacity=".14"/><path d="M0 22h1200" stroke="#fff" stroke-opacity=".13" stroke-width="2"/>
</svg>