<svg xmlns="http://www.w3.org/2000/svg" viewBox="0 0 1200 360" preserveAspectRatio="xMidYMid slice" role="img" aria-label="Safari Trail">
<defs><linearGradient id="gsafaritrail" x1="0" y1="0" x2="1" y2="1"><stop stop-color="#496a3a"/><stop offset="1" stop-color="#8dbf57"/></linearGradient><radialGradient id="rsafaritrail" cx="28%" cy="10%" r="90%"><stop stop-color="#fff" stop-opacity=".24"/><stop offset="1" stop-color="#000" stop-opacity=".1"/></radialGradient></defs>
<rect width="1200" height="360" fill="url(#gsafaritrail)"/><rect width="1200" height="360" fill="url(#rsafaritrail)"/><g stroke="#d8d090" stroke-opacity=".22" fill="none"><path d="M0 60 1200 60"/><path d="M0 120 1200 120"/><path d="M0 180 1200 180"/><path d="M0 240 1200 240"/><path d="M0 300 1200 300"/><path d="M80 0 80 360"/><path d="M160 0 160 360"/><path d="M240 0 240 360"/><path d="M320 0 320 360"/><path d="M400 0 400 360"/><path d="M480 0 480 360"/><path d="M560 0 560 360"/><path d="M640 0 640 360"/><path d="M720 0 720 360"/><path d="M800 0 800 360"/><path d="M880 0 880 360"/><path d="M960 0 960 360"/><path d="M1040 0 1040 360"/><path d="M1120 0 1120 360"/></g><circle cx="331" cy="208" r="2" fill="#d8d090" opacity=".30"/><circle cx="272" cy="219" r="7" fill="#d8d090" opacity=".30"/><circle cx="981" cy="238" r="3" fill="#d8d090" opacity=".36"/><circle cx="1059" cy="174" r="8" fill="#d8d090" opacity=".30"/><circle cx="439" cy="179" r="3" fill="#d8d090" opacity=".24"/><circle cx="670" cy="40" r="2" fill="#d8d090" opacity=".36"/><circle cx="146" cy="189" r="7" fill="#d8d090" opacity=".18"/><circle cx="663" cy="302" r="7" fill="#d8d090" opacity=".24"/><circle cx="478" cy="212" r="8" fill="#d8d090" opacity=".24"/><circle cx="688" cy="165" r="7" fill="#d8d090" opacity=".36"/><circle cx="988" cy="188" r="8" fill="#d8d090" opacity=".45"/><circle cx="168" cy="63" r="5" fill="#d8d090" opacity=".30"/><path d="M-20 320Q160 95 370 280 560 80 760 260 950 70 1220 230" fill="none" stroke="#d8d090" stroke-opacity=".48" stroke-width="7"/><g fill="#d8d090" opacity=".35"><path d="M125 105q45-45 90 0-45 45-90 0z"/><path d="M850 95q55-55 110 0-55 55-110 0z"/></g><path d="M-30 337C180 285 330 365 520 310s395-6 720-120v190H-30z" fill="#081018" opacity=".14"/><path d="M0 22h1200" stroke="#fff" stroke-opacity=".13" stroke-width="2"/>
</svg>