<svg xmlns="http://www.w3.org/2000/svg" viewBox="0 0 1200 360" preserveAspectRatio="xMidYMid slice" role="img" aria-label="Shadow Fade">
<defs><linearGradient id="gshadowfade" x1="0" y1="0" x2="1" y2="1"><stop stop-color="#161a23"/><stop offset="1" stop-color="#3c3546"/></linearGradient><radialGradient id="rshadowfade" cx="28%" cy="10%" r="90%"><stop stop-color="#fff" stop-opacity=".24"/><stop offset="1" stop-color="#000" stop-opacity=".1"/></radialGradient></defs>
<rect width="1200" height="360" fill="url(#gshadowfade)"/><rect width="1200" height="360" fill="url(#rshadowfade)"/><g fill="none" stroke="#8b829d" stroke-opacity=".2" stroke-width="4"><path d="M50 260h200l60-90h190l50 45h250l65-110h300"/><path d="M250 260v60M500 170V65M800 215v85M865 105v-60"/></g><circle cx="940" cy="257" r="2" fill="#8b829d" opacity=".24"/><circle cx="398" cy="56" r="6" fill="#8b829d" opacity=".36"/><circle cx="492" cy="117" r="8" fill="#8b829d" opacity=".36"/><circle cx="820" cy="246" r="8" fill="#8b829d" opacity=".36"/><circle cx="335" cy="97" r="8" fill="#8b829d" opacity=".18"/><circle cx="640" cy="46" r="3" fill="#8b829d" opacity=".18"/><circle cx="677" cy="140" r="7" fill="#8b829d" opacity=".18"/><circle cx="486" cy="292" r="2" fill="#8b829d" opacity=".30"/><circle cx="95" cy="123" r="5" fill="#8b829d" opacity=".30"/><circle cx="788" cy="133" r="4" fill="#8b829d" opacity=".24"/><circle cx="1153" cy="237" r="6" fill="#8b829d" opacity=".30"/><circle cx="155" cy="240" r="5" fill="#8b829d" opacity=".30"/><circle cx="600" cy="180" r="120" fill="#8b829d" opacity=".2"/><path d="M-30 337C180 285 330 365 520 310s395-6 720-120v190H-30z" fill="#081018" opacity=".14"/><path d="M0 22h1200" stroke="#fff" stroke-opacity=".13" stroke-width="2"/>
</svg>