<svg xmlns="http://www.w3.org/2000/svg" viewBox="0 0 1200 360" preserveAspectRatio="xMidYMid slice" role="img" aria-label="Shiny Spark">
<defs><linearGradient id="gshinyspark" x1="0" y1="0" x2="1" y2="1"><stop stop-color="#4c356c"/><stop offset="1" stop-color="#b57ac3"/></linearGradient><radialGradient id="rshinyspark" cx="28%" cy="10%" r="90%"><stop stop-color="#fff" stop-opacity=".24"/><stop offset="1" stop-color="#000" stop-opacity=".1"/></radialGradient></defs>
<rect width="1200" height="360" fill="url(#gshinyspark)"/><rect width="1200" height="360" fill="url(#rshinyspark)"/><path d="M-30 270Q180 80 400 220t420-30 410-50" fill="none" stroke="#fff6ba" stroke-opacity=".22" stroke-width="45"/><circle cx="210" cy="233" r="3" fill="#fff6ba" opacity=".36"/><circle cx="92" cy="59" r="7" fill="#fff6ba" opacity=".36"/><circle cx="122" cy="128" r="5" fill="#fff6ba" opacity=".18"/><circle cx="168" cy="140" r="7" fill="#fff6ba" opacity=".18"/><circle cx="891" cy="252" r="2" fill="#fff6ba" opacity=".30"/><circle cx="412" cy="148" r="8" fill="#fff6ba" opacity=".45"/><circle cx="401" cy="259" r="5" fill="#fff6ba" opacity=".30"/><circle cx="507" cy="103" r="2" fill="#fff6ba" opacity=".30"/><circle cx="502" cy="174" r="4" fill="#fff6ba" opacity=".24"/><circle cx="652" cy="253" r="5" fill="#fff6ba" opacity=".30"/><circle cx="879" cy="135" r="5" fill="#fff6ba" opacity=".30"/><circle cx="579" cy="150" r="8" fill="#fff6ba" opacity=".30"/><path d="M130 72q5.6 22.400000000000002 28 28-22.400000000000002 5.6-28 28q-5.6-22.400000000000002-28-28 22.400000000000002-5.6 28-28z" fill="#fff6ba" opacity=".7"/><path d="M300 232q3.6 14.4 18 18-14.4 3.6-18 18q-3.6-14.4-18-18 14.4-3.6 18-18z" fill="#fff6ba" opacity=".5"/><path d="M600 115q9.0 36.0 45 45-36.0 9.0-45 45q-9.0-36.0-45-45 36.0-9.0 45-45z" fill="#fff6ba" opacity=".8"/><path d="M880 57q4.6 18.400000000000002 23 23-18.400000000000002 4.6-23 23q-4.6-18.400000000000002-23-23 18.400000000000002-4.6 23-23z" fill="#fff6ba" opacity=".6"/><path d="M1050 218q6.4 25.6 32 32-25.6 6.4-32 32q-6.4-25.6-32-32 25.6-6.4 32-32z" fill="#fff6ba" opacity=".7"/><path d="M-30 337C180 285 330 365 520 310s395-6 720-120v190H-30z" fill="#081018" opacity=".14"/><path d="M0 22h1200" stroke="#fff" stroke-opacity=".13" stroke-width="2"/>
</svg>