<svg xmlns="http://www.w3.org/2000/svg" viewBox="0 0 1200 360" preserveAspectRatio="xMidYMid slice" role="img" aria-label="Sky Drift">
<defs><linearGradient id="gskydrift" x1="0" y1="0" x2="1" y2="1"><stop stop-color="#6cb9d5"/><stop offset="1" stop-color="#d9f0f5"/></linearGradient><radialGradient id="rskydrift" cx="28%" cy="10%" r="90%"><stop stop-color="#fff" stop-opacity=".24"/><stop offset="1" stop-color="#000" stop-opacity=".1"/></radialGradient></defs>
<rect width="1200" height="360" fill="url(#gskydrift)"/><rect width="1200" height="360" fill="url(#rskydrift)"/><g fill="none" stroke="#ffffff" stroke-opacity=".2"><circle cx="600" cy="180" r="40"/><circle cx="600" cy="180" r="80"/><circle cx="600" cy="180" r="130"/><circle cx="600" cy="180" r="190"/><circle cx="600" cy="180" r="260"/></g><circle cx="220" cy="149" r="5" fill="#ffffff" opacity=".30"/><circle cx="1130" cy="90" r="3" fill="#ffffff" opacity=".45"/><circle cx="636" cy="75" r="5" fill="#ffffff" opacity=".45"/><circle cx="490" cy="108" r="8" fill="#ffffff" opacity=".36"/><circle cx="702" cy="267" r="4" fill="#ffffff" opacity=".45"/><circle cx="1037" cy="291" r="7" fill="#ffffff" opacity=".24"/><circle cx="1165" cy="115" r="4" fill="#ffffff" opacity=".18"/><circle cx="490" cy="258" r="7" fill="#ffffff" opacity=".45"/><circle cx="161" cy="120" r="5" fill="#ffffff" opacity=".24"/><circle cx="152" cy="305" r="2" fill="#ffffff" opacity=".18"/><circle cx="364" cy="108" r="6" fill="#ffffff" opacity=".36"/><circle cx="772" cy="135" r="2" fill="#ffffff" opacity=".24"/><g fill="#fff" opacity=".35"><ellipse cx="200" cy="230" rx="170" ry="55"/><ellipse cx="520" cy="120" rx="190" ry="62"/><ellipse cx="980" cy="240" rx="240" ry="70"/></g><path d="M40 80h310q70 0 110 35M620 270h430" fill="none" stroke="#fff" stroke-opacity=".5" stroke-width="6"/><path d="M-30 337C180 285 330 365 520 310s395-6 720-120v190H-30z" fill="#081018" opacity=".14"/><path d="M0 22h1200" stroke="#fff" stroke-opacity=".13" stroke-width="2"/>
</svg>