<svg xmlns="http://www.w3.org/2000/svg" viewBox="0 0 1200 360" preserveAspectRatio="xMidYMid slice" role="img" aria-label="Solar Burst">
<defs><linearGradient id="gsolarburst" x1="0" y1="0" x2="1" y2="1"><stop stop-color="#783821"/><stop offset="1" stop-color="#f08a2c"/></linearGradient><radialGradient id="rsolarburst" cx="28%" cy="10%" r="90%"><stop stop-color="#fff" stop-opacity=".24"/><stop offset="1" stop-color="#000" stop-opacity=".1"/></radialGradient></defs>
<rect width="1200" height="360" fill="url(#gsolarburst)"/><rect width="1200" height="360" fill="url(#rsolarburst)"/><g fill="none" stroke="#ffe8a5" stroke-opacity=".2" stroke-width="4"><path d="M50 260h200l60-90h190l50 45h250l65-110h300"/><path d="M250 260v60M500 170V65M800 215v85M865 105v-60"/></g><circle cx="1090" cy="155" r="3" fill="#ffe8a5" opacity=".24"/><circle cx="430" cy="109" r="8" fill="#ffe8a5" opacity=".36"/><circle cx="610" cy="81" r="5" fill="#ffe8a5" opacity=".36"/><circle cx="847" cy="94" r="8" fill="#ffe8a5" opacity=".36"/><circle cx="876" cy="105" r="3" fill="#ffe8a5" opacity=".45"/><circle cx="188" cy="44" r="4" fill="#ffe8a5" opacity=".36"/><circle cx="547" cy="274" r="6" fill="#ffe8a5" opacity=".24"/><circle cx="674" cy="223" r="3" fill="#ffe8a5" opacity=".45"/><circle cx="591" cy="75" r="7" fill="#ffe8a5" opacity=".18"/><circle cx="164" cy="218" r="5" fill="#ffe8a5" opacity=".36"/><circle cx="331" cy="108" r="4" fill="#ffe8a5" opacity=".24"/><circle cx="1020" cy="315" r="3" fill="#ffe8a5" opacity=".30"/><path d="M600 180 600-50M600 180 600 410M600 180-100 180M600 180 1300 180M600 180 80-20M600 180 1120-20M600 180 80 380M600 180 1120 380" stroke="#ffe8a5" stroke-opacity=".5" stroke-width="18"/><circle cx="600" cy="180" r="90" fill="#fff" opacity=".55"/><circle cx="600" cy="180" r="45" fill="#ffe8a5"/><path d="M-30 337C180 285 330 365 520 310s395-6 720-120v190H-30z" fill="#081018" opacity=".14"/><path d="M0 22h1200" stroke="#fff" stroke-opacity=".13" stroke-width="2"/>
</svg>