<svg xmlns="http://www.w3.org/2000/svg" viewBox="0 0 1200 360" preserveAspectRatio="xMidYMid slice" role="img" aria-label="Star Circuit">
<defs><linearGradient id="gstarcircuit" x1="0" y1="0" x2="1" y2="1"><stop stop-color="#111b37"/><stop offset="1" stop-color="#283a67"/></linearGradient><radialGradient id="rstarcircuit" cx="28%" cy="10%" r="90%"><stop stop-color="#fff" stop-opacity=".24"/><stop offset="1" stop-color="#000" stop-opacity=".1"/></radialGradient></defs>
<rect width="1200" height="360" fill="url(#gstarcircuit)"/><rect width="1200" height="360" fill="url(#rstarcircuit)"/><g fill="#f0d66a" opacity=".18"><path d="M60 90l35-55 35 55-35 55z"/><path d="M230 250l35-55 35 55-35 55z"/><path d="M810 80l35-55 35 55-35 55z"/><path d="M1020 230l35-55 35 55-35 55z"/></g><circle cx="1087" cy="71" r="5" fill="#f0d66a" opacity=".45"/><circle cx="552" cy="187" r="7" fill="#f0d66a" opacity=".30"/><circle cx="937" cy="116" r="7" fill="#f0d66a" opacity=".24"/><circle cx="129" cy="158" r="7" fill="#f0d66a" opacity=".18"/><circle cx="33" cy="292" r="5" fill="#f0d66a" opacity=".36"/><circle cx="978" cy="286" r="3" fill="#f0d66a" opacity=".24"/><circle cx="462" cy="145" r="6" fill="#f0d66a" opacity=".30"/><circle cx="244" cy="222" r="6" fill="#f0d66a" opacity=".36"/><circle cx="664" cy="86" r="6" fill="#f0d66a" opacity=".36"/><circle cx="231" cy="117" r="4" fill="#f0d66a" opacity=".24"/><circle cx="572" cy="241" r="2" fill="#f0d66a" opacity=".24"/><circle cx="61" cy="148" r="2" fill="#f0d66a" opacity=".36"/><path d="M130 72q5.6 22.400000000000002 28 28-22.400000000000002 5.6-28 28q-5.6-22.400000000000002-28-28 22.400000000000002-5.6 28-28z" fill="#f0d66a" opacity=".7"/><path d="M300 232q3.6 14.4 18 18-14.4 3.6-18 18q-3.6-14.4-18-18 14.4-3.6 18-18z" fill="#f0d66a" opacity=".5"/><path d="M600 115q9.0 36.0 45 45-36.0 9.0-45 45q-9.0-36.0-45-45 36.0-9.0 45-45z" fill="#f0d66a" opacity=".8"/><path d="M880 57q4.6 18.400000000000002 23 23-18.400000000000002 4.6-23 23q-4.6-18.400000000000002-23-23 18.400000000000002-4.6 23-23z" fill="#f0d66a" opacity=".6"/><path d="M1050 218q6.4 25.6 32 32-25.6 6.4-32 32q-6.4-25.6-32-32 25.6-6.4 32-32z" fill="#f0d66a" opacity=".7"/><path d="M-30 337C180 285 330 365 520 310s395-6 720-120v190H-30z" fill="#081018" opacity=".14"/><path d="M0 22h1200" stroke="#fff" stroke-opacity=".13" stroke-width="2"/>
</svg>