<svg xmlns="http://www.w3.org/2000/svg" viewBox="0 0 1200 360" preserveAspectRatio="xMidYMid slice" role="img" aria-label="Terra Pulse">
<defs><linearGradient id="gterrapulse" x1="0" y1="0" x2="1" y2="1"><stop stop-color="#5e493a"/><stop offset="1" stop-color="#9f7651"/></linearGradient><radialGradient id="rterrapulse" cx="28%" cy="10%" r="90%"><stop stop-color="#fff" stop-opacity=".24"/><stop offset="1" stop-color="#000" stop-opacity=".1"/></radialGradient></defs>
<rect width="1200" height="360" fill="url(#gterrapulse)"/><rect width="1200" height="360" fill="url(#rterrapulse)"/><g opacity=".2"><rect x="796" y="72" width="43" height="7" fill="#d2b27a"/><rect x="276" y="207" width="135" height="23" fill="#d2b27a"/><rect x="1031" y="120" width="165" height="22" fill="#d2b27a"/><rect x="98" y="69" width="101" height="18" fill="#d2b27a"/><rect x="758" y="74" width="112" height="20" fill="#d2b27a"/><rect x="4" y="109" width="91" height="15" fill="#d2b27a"/><rect x="184" y="277" width="58" height="13" fill="#d2b27a"/><rect x="580" y="293" width="87" height="22" fill="#d2b27a"/><rect x="918" y="124" width="116" height="17" fill="#d2b27a"/><rect x="316" y="118" width="136" height="16" fill="#d2b27a"/><rect x="301" y="251" width="78" height="9" fill="#d2b27a"/></g><circle cx="687" cy="211" r="6" fill="#d2b27a" opacity=".45"/><circle cx="211" cy="298" r="4" fill="#d2b27a" opacity=".45"/><circle cx="355" cy="297" r="5" fill="#d2b27a" opacity=".45"/><circle cx="410" cy="270" r="4" fill="#d2b27a" opacity=".24"/><circle cx="787" cy="269" r="2" fill="#d2b27a" opacity=".18"/><circle cx="621" cy="147" r="3" fill="#d2b27a" opacity=".30"/><circle cx="489" cy="208" r="3" fill="#d2b27a" opacity=".24"/><circle cx="907" cy="217" r="8" fill="#d2b27a" opacity=".30"/><circle cx="1049" cy="90" r="6" fill="#d2b27a" opacity=".18"/><circle cx="605" cy="246" r="5" fill="#d2b27a" opacity=".24"/><circle cx="1121" cy="298" r="2" fill="#d2b27a" opacity=".45"/><circle cx="859" cy="205" r="7" fill="#d2b27a" opacity=".36"/><path d="M0 280 170 150l135 75 160-135 170 105 185-145 185 145 235-110v275H0z" fill="#d2b27a" opacity=".28"/><g fill="none" stroke="#d2b27a" stroke-opacity=".3"><ellipse cx="620" cy="200" rx="250" ry="80"/><ellipse cx="620" cy="200" rx="155" ry="50"/></g><path d="M-30 337C180 285 330 365 520 310s395-6 720-120v190H-30z" fill="#081018" opacity=".14"/><path d="M0 22h1200" stroke="#fff" stroke-opacity=".13" stroke-width="2"/>
</svg>