<svg xmlns="http://www.w3.org/2000/svg" viewBox="0 0 1200 360" preserveAspectRatio="xMidYMid slice" role="img" aria-label="Thunder Strike">
<defs><linearGradient id="gthunderstrike" x1="0" y1="0" x2="1" y2="1"><stop stop-color="#292f62"/><stop offset="1" stop-color="#6d4ba6"/></linearGradient><radialGradient id="rthunderstrike" cx="28%" cy="10%" r="90%"><stop stop-color="#fff" stop-opacity=".24"/><stop offset="1" stop-color="#000" stop-opacity=".1"/></radialGradient></defs>
<rect width="1200" height="360" fill="url(#gthunderstrike)"/><rect width="1200" height="360" fill="url(#rthunderstrike)"/><path d="m100 60 22 13v25l-22 13-22-13v-25z" fill="none" stroke="#ffd844" stroke-opacity=".22" stroke-width="3"/><path d="m160 100 22 13v25l-22 13-22-13v-25z" fill="none" stroke="#ffd844" stroke-opacity=".22" stroke-width="3"/><path d="m220 60 22 13v25l-22 13-22-13v-25z" fill="none" stroke="#ffd844" stroke-opacity=".22" stroke-width="3"/><path d="m900 65 22 13v25l-22 13-22-13v-25z" fill="none" stroke="#ffd844" stroke-opacity=".22" stroke-width="3"/><path d="m960 105 22 13v25l-22 13-22-13v-25z" fill="none" stroke="#ffd844" stroke-opacity=".22" stroke-width="3"/><path d="m1020 65 22 13v25l-22 13-22-13v-25z" fill="none" stroke="#ffd844" stroke-opacity=".22" stroke-width="3"/><path d="m740 240 22 13v25l-22 13-22-13v-25z" fill="none" stroke="#ffd844" stroke-opacity=".22" stroke-width="3"/><circle cx="480" cy="122" r="5" fill="#ffd844" opacity=".45"/><circle cx="831" cy="213" r="4" fill="#ffd844" opacity=".45"/><circle cx="442" cy="104" r="2" fill="#ffd844" opacity=".18"/><circle cx="711" cy="233" r="6" fill="#ffd844" opacity=".18"/><circle cx="511" cy="302" r="4" fill="#ffd844" opacity=".30"/><circle cx="225" cy="309" r="8" fill="#ffd844" opacity=".18"/><circle cx="811" cy="161" r="3" fill="#ffd844" opacity=".45"/><circle cx="970" cy="281" r="8" fill="#ffd844" opacity=".45"/><circle cx="880" cy="189" r="5" fill="#ffd844" opacity=".24"/><circle cx="593" cy="106" r="4" fill="#ffd844" opacity=".30"/><circle cx="887" cy="222" r="5" fill="#ffd844" opacity=".30"/><circle cx="1072" cy="129" r="6" fill="#ffd844" opacity=".18"/><path d="M220 0 70 180h105L95 350l245-250H220zM820-20 650 185h120l-88 185 295-275H835z" fill="#ffd844" opacity=".58"/><path d="M-30 337C180 285 330 365 520 310s395-6 720-120v190H-30z" fill="#081018" opacity=".14"/><path d="M0 22h1200" stroke="#fff" stroke-opacity=".13" stroke-width="2"/>
</svg>