<svg xmlns="http://www.w3.org/2000/svg" viewBox="0 0 1200 360" preserveAspectRatio="xMidYMid slice" role="img" aria-label="Topographic">
<defs><linearGradient id="gtopographic" x1="0" y1="0" x2="1" y2="1"><stop stop-color="#d6e4df"/><stop offset="1" stop-color="#7aa598"/></linearGradient><radialGradient id="rtopographic" cx="28%" cy="10%" r="90%"><stop stop-color="#fff" stop-opacity=".24"/><stop offset="1" stop-color="#000" stop-opacity=".1"/></radialGradient></defs>
<rect width="1200" height="360" fill="url(#gtopographic)"/><rect width="1200" height="360" fill="url(#rtopographic)"/><g stroke="#43665f" stroke-opacity=".16" stroke-width="5"><path d="M-200 360 40 0"/><path d="M-20 360 220 0"/><path d="M160 360 400 0"/><path d="M340 360 580 0"/><path d="M520 360 760 0"/><path d="M700 360 940 0"/><path d="M880 360 1120 0"/><path d="M1060 360 1300 0"/></g><circle cx="314" cy="62" r="6" fill="#43665f" opacity=".36"/><circle cx="511" cy="178" r="7" fill="#43665f" opacity=".24"/><circle cx="274" cy="164" r="4" fill="#43665f" opacity=".24"/><circle cx="405" cy="41" r="4" fill="#43665f" opacity=".45"/><circle cx="434" cy="230" r="8" fill="#43665f" opacity=".24"/><circle cx="87" cy="258" r="7" fill="#43665f" opacity=".30"/><circle cx="1121" cy="82" r="8" fill="#43665f" opacity=".24"/><circle cx="462" cy="183" r="5" fill="#43665f" opacity=".18"/><circle cx="230" cy="36" r="2" fill="#43665f" opacity=".18"/><circle cx="1032" cy="320" r="8" fill="#43665f" opacity=".30"/><circle cx="1027" cy="259" r="2" fill="#43665f" opacity=".18"/><circle cx="751" cy="215" r="5" fill="#43665f" opacity=".30"/><circle cx="600" cy="180" r="120" fill="#43665f" opacity=".2"/><path d="M-30 337C180 285 330 365 520 310s395-6 720-120v190H-30z" fill="#081018" opacity=".14"/><path d="M0 22h1200" stroke="#fff" stroke-opacity=".13" stroke-width="2"/>
</svg>