<svg xmlns="http://www.w3.org/2000/svg" viewBox="0 0 1200 360" preserveAspectRatio="xMidYMid slice" role="img" aria-label="Trainer Journey">
<defs><linearGradient id="gtrainerjourney" x1="0" y1="0" x2="1" y2="1"><stop stop-color="#5c7a58"/><stop offset="1" stop-color="#d6c06e"/></linearGradient><radialGradient id="rtrainerjourney" cx="28%" cy="10%" r="90%"><stop stop-color="#fff" stop-opacity=".24"/><stop offset="1" stop-color="#000" stop-opacity=".1"/></radialGradient></defs>
<rect width="1200" height="360" fill="url(#gtrainerjourney)"/><rect width="1200" height="360" fill="url(#rtrainerjourney)"/><g fill="#f6efe0" opacity=".18"><path d="M120 60q4 16 20 20-16 4-20 20-4-16-20-20 16-4 20-20z"/><path d="M330 230q4 16 20 20-16 4-20 20-4-16-20-20 16-4 20-20z"/><path d="M620 70q4 16 20 20-16 4-20 20-4-16-20-20 16-4 20-20z"/><path d="M900 220q4 16 20 20-16 4-20 20-4-16-20-20 16-4 20-20z"/><path d="M1090 50q4 16 20 20-16 4-20 20-4-16-20-20 16-4 20-20z"/></g><circle cx="717" cy="50" r="4" fill="#f6efe0" opacity=".18"/><circle cx="625" cy="38" r="6" fill="#f6efe0" opacity=".24"/><circle cx="1015" cy="72" r="6" fill="#f6efe0" opacity=".24"/><circle cx="736" cy="188" r="7" fill="#f6efe0" opacity=".36"/><circle cx="699" cy="70" r="4" fill="#f6efe0" opacity=".18"/><circle cx="771" cy="82" r="2" fill="#f6efe0" opacity=".45"/><circle cx="271" cy="38" r="7" fill="#f6efe0" opacity=".45"/><circle cx="1121" cy="88" r="8" fill="#f6efe0" opacity=".45"/><circle cx="588" cy="278" r="6" fill="#f6efe0" opacity=".36"/><circle cx="577" cy="188" r="2" fill="#f6efe0" opacity=".30"/><circle cx="266" cy="260" r="7" fill="#f6efe0" opacity=".36"/><circle cx="942" cy="276" r="2" fill="#f6efe0" opacity=".18"/><path d="M40 305Q180 190 320 250t260-90 280 25 300-120" fill="none" stroke="#f6efe0" stroke-opacity=".65" stroke-width="14" stroke-linecap="round" stroke-dasharray="22 20"/><g fill="#fff" stroke="#f6efe0" stroke-width="6"><circle cx="70" cy="290" r="18"/><circle cx="300" cy="245" r="18"/><circle cx="570" cy="165" r="18"/><circle cx="850" cy="185" r="18"/><circle cx="1120" cy="80" r="18"/></g><path d="M-30 337C180 285 330 365 520 310s395-6 720-120v190H-30z" fill="#081018" opacity=".14"/><path d="M0 22h1200" stroke="#fff" stroke-opacity=".13" stroke-width="2"/>
</svg>