<svg xmlns="http://www.w3.org/2000/svg" viewBox="0 0 1200 360" preserveAspectRatio="xMidYMid slice" role="img" aria-label="Type Matrix">
<defs><linearGradient id="gtypematrix" x1="0" y1="0" x2="1" y2="1"><stop stop-color="#293854"/><stop offset="1" stop-color="#5e7c8f"/></linearGradient><radialGradient id="rtypematrix" cx="28%" cy="10%" r="90%"><stop stop-color="#fff" stop-opacity=".24"/><stop offset="1" stop-color="#000" stop-opacity=".1"/></radialGradient></defs>
<rect width="1200" height="360" fill="url(#gtypematrix)"/><rect width="1200" height="360" fill="url(#rtypematrix)"/><path d="m100 60 22 13v25l-22 13-22-13v-25z" fill="none" stroke="#d95d5d" stroke-opacity=".22" stroke-width="3"/><path d="m160 100 22 13v25l-22 13-22-13v-25z" fill="none" stroke="#d95d5d" stroke-opacity=".22" stroke-width="3"/><path d="m220 60 22 13v25l-22 13-22-13v-25z" fill="none" stroke="#d95d5d" stroke-opacity=".22" stroke-width="3"/><path d="m900 65 22 13v25l-22 13-22-13v-25z" fill="none" stroke="#d95d5d" stroke-opacity=".22" stroke-width="3"/><path d="m960 105 22 13v25l-22 13-22-13v-25z" fill="none" stroke="#d95d5d" stroke-opacity=".22" stroke-width="3"/><path d="m1020 65 22 13v25l-22 13-22-13v-25z" fill="none" stroke="#d95d5d" stroke-opacity=".22" stroke-width="3"/><path d="m740 240 22 13v25l-22 13-22-13v-25z" fill="none" stroke="#d95d5d" stroke-opacity=".22" stroke-width="3"/><circle cx="219" cy="89" r="6" fill="#d95d5d" opacity=".24"/><circle cx="564" cy="51" r="8" fill="#d95d5d" opacity=".30"/><circle cx="745" cy="233" r="3" fill="#d95d5d" opacity=".24"/><circle cx="599" cy="50" r="7" fill="#d95d5d" opacity=".18"/><circle cx="750" cy="310" r="6" fill="#d95d5d" opacity=".30"/><circle cx="445" cy="311" r="6" fill="#d95d5d" opacity=".30"/><circle cx="193" cy="251" r="3" fill="#d95d5d" opacity=".24"/><circle cx="993" cy="78" r="5" fill="#d95d5d" opacity=".36"/><circle cx="463" cy="70" r="5" fill="#d95d5d" opacity=".18"/><circle cx="831" cy="145" r="8" fill="#d95d5d" opacity=".45"/><circle cx="447" cy="189" r="3" fill="#d95d5d" opacity=".45"/><circle cx="754" cy="92" r="5" fill="#d95d5d" opacity=".45"/><path d="M70 54 14 70 70 86 56 70z" fill="#d95d5d" opacity=".2"/><path d="M200 54 14 70 200 86 186 70z" fill="#d95d5d" opacity=".3"/><path d="M330 54 14 70 330 86 316 70z" fill="#d95d5d" opacity=".4"/><path d="M460 54 14 70 460 86 446 70z" fill="#d95d5d" opacity=".5"/><path d="M590 54 14 70 590 86 576 70z" fill="#d95d5d" opacity=".6"/><path d="M720 54 14 70 720 86 706 70z" fill="#d95d5d" opacity=".2"/><path d="M850 54 14 70 850 86 836 70z" fill="#d95d5d" opacity=".3"/><path d="M980 54 14 70 980 86 966 70z" fill="#d95d5d" opacity=".4"/><path d="M1110 54 14 70 1110 86 1096 70z" fill="#d95d5d" opacity=".5"/><path d="M70 164 14 180 70 196 56 180z" fill="#d95d5d" opacity=".3"/><path d="M200 164 14 180 200 196 186 180z" fill="#d95d5d" opacity=".4"/><path d="M330 164 14 180 330 196 316 180z" fill="#d95d5d" opacity=".5"/><path d="M460 164 14 180 460 196 446 180z" fill="#d95d5d" opacity=".6"/><path d="M590 164 14 180 590 196 576 180z" fill="#d95d5d" opacity=".2"/><path d="M720 164 14 180 720 196 706 180z" fill="#d95d5d" opacity=".3"/><path d="M850 164 14 180 850 196 836 180z" fill="#d95d5d" opacity=".4"/><path d="M980 164 14 180 980 196 966 180z" fill="#d95d5d" opacity=".5"/><path d="M1110 164 14 180 1110 196 1096 180z" fill="#d95d5d" opacity=".6"/><path d="M70 274 14 290 70 306 56 290z" fill="#d95d5d" opacity=".4"/><path d="M200 274 14 290 200 306 186 290z" fill="#d95d5d" opacity=".5"/><path d="M330 274 14 290 330 306 316 290z" fill="#d95d5d" opacity=".6"/><path d="M460 274 14 290 460 306 446 290z" fill="#d95d5d" opacity=".2"/><path d="M590 274 14 290 590 306 576 290z" fill="#d95d5d" opacity=".3"/><path d="M720 274 14 290 720 306 706 290z" fill="#d95d5d" opacity=".4"/><path d="M850 274 14 290 850 306 836 290z" fill="#d95d5d" opacity=".5"/><path d="M980 274 14 290 980 306 966 290z" fill="#d95d5d" opacity=".6"/><path d="M1110 274 14 290 1110 306 1096 290z" fill="#d95d5d" opacity=".2"/><path d="M-30 337C180 285 330 365 520 310s395-6 720-120v190H-30z" fill="#081018" opacity=".14"/><path d="M0 22h1200" stroke="#fff" stroke-opacity=".13" stroke-width="2"/>
</svg>