<svg xmlns="http://www.w3.org/2000/svg" viewBox="0 0 1200 360" preserveAspectRatio="xMidYMid slice" role="img" aria-label="Verdant Bloom">
<defs><linearGradient id="gverdantbloom" x1="0" y1="0" x2="1" y2="1"><stop stop-color="#295c3d"/><stop offset="1" stop-color="#72a34a"/></linearGradient><radialGradient id="rverdantbloom" cx="28%" cy="10%" r="90%"><stop stop-color="#fff" stop-opacity=".24"/><stop offset="1" stop-color="#000" stop-opacity=".1"/></radialGradient></defs>
<rect width="1200" height="360" fill="url(#gverdantbloom)"/><rect width="1200" height="360" fill="url(#rverdantbloom)"/><g stroke="#d9e985" stroke-opacity=".22" fill="none"><path d="M0 60 1200 60"/><path d="M0 120 1200 120"/><path d="M0 180 1200 180"/><path d="M0 240 1200 240"/><path d="M0 300 1200 300"/><path d="M80 0 80 360"/><path d="M160 0 160 360"/><path d="M240 0 240 360"/><path d="M320 0 320 360"/><path d="M400 0 400 360"/><path d="M480 0 480 360"/><path d="M560 0 560 360"/><path d="M640 0 640 360"/><path d="M720 0 720 360"/><path d="M800 0 800 360"/><path d="M880 0 880 360"/><path d="M960 0 960 360"/><path d="M1040 0 1040 360"/><path d="M1120 0 1120 360"/></g><circle cx="634" cy="48" r="5" fill="#d9e985" opacity=".36"/><circle cx="1041" cy="244" r="2" fill="#d9e985" opacity=".36"/><circle cx="100" cy="270" r="5" fill="#d9e985" opacity=".45"/><circle cx="991" cy="272" r="7" fill="#d9e985" opacity=".18"/><circle cx="84" cy="73" r="7" fill="#d9e985" opacity=".18"/><circle cx="1039" cy="60" r="7" fill="#d9e985" opacity=".30"/><circle cx="649" cy="37" r="3" fill="#d9e985" opacity=".18"/><circle cx="100" cy="203" r="3" fill="#d9e985" opacity=".24"/><circle cx="1013" cy="68" r="2" fill="#d9e985" opacity=".24"/><circle cx="1152" cy="126" r="3" fill="#d9e985" opacity=".45"/><circle cx="1023" cy="140" r="3" fill="#d9e985" opacity=".24"/><circle cx="734" cy="97" r="3" fill="#d9e985" opacity=".18"/><path d="M-20 320Q160 95 370 280 560 80 760 260 950 70 1220 230" fill="none" stroke="#d9e985" stroke-opacity=".48" stroke-width="7"/><g fill="#d9e985" opacity=".35"><path d="M125 105q45-45 90 0-45 45-90 0z"/><path d="M850 95q55-55 110 0-55 55-110 0z"/></g><path d="M-30 337C180 285 330 365 520 310s395-6 720-120v190H-30z" fill="#081018" opacity=".14"/><path d="M0 22h1200" stroke="#fff" stroke-opacity=".13" stroke-width="2"/>
</svg>