<svg xmlns="http://www.w3.org/2000/svg" viewBox="0 0 1200 360" preserveAspectRatio="xMidYMid slice" role="img" aria-label="Victory Stamp">
<defs><linearGradient id="gvictorystamp" x1="0" y1="0" x2="1" y2="1"><stop stop-color="#7a2831"/><stop offset="1" stop-color="#c0834d"/></linearGradient><radialGradient id="rvictorystamp" cx="28%" cy="10%" r="90%"><stop stop-color="#fff" stop-opacity=".24"/><stop offset="1" stop-color="#000" stop-opacity=".1"/></radialGradient></defs>
<rect width="1200" height="360" fill="url(#gvictorystamp)"/><rect width="1200" height="360" fill="url(#rvictorystamp)"/><g opacity=".2"><rect x="261" y="35" width="154" height="10" fill="#ecd4a0"/><rect x="754" y="246" width="76" height="24" fill="#ecd4a0"/><rect x="1079" y="249" width="82" height="14" fill="#ecd4a0"/><rect x="529" y="115" width="165" height="12" fill="#ecd4a0"/><rect x="494" y="92" width="69" height="25" fill="#ecd4a0"/><rect x="1022" y="206" width="87" height="15" fill="#ecd4a0"/><rect x="505" y="167" width="177" height="21" fill="#ecd4a0"/><rect x="272" y="26" width="105" height="23" fill="#ecd4a0"/><rect x="659" y="104" width="164" height="25" fill="#ecd4a0"/><rect x="538" y="24" width="106" height="8" fill="#ecd4a0"/><rect x="1031" y="286" width="167" height="12" fill="#ecd4a0"/></g><circle cx="555" cy="269" r="3" fill="#ecd4a0" opacity=".24"/><circle cx="935" cy="192" r="5" fill="#ecd4a0" opacity=".45"/><circle cx="520" cy="145" r="2" fill="#ecd4a0" opacity=".30"/><circle cx="100" cy="303" r="6" fill="#ecd4a0" opacity=".18"/><circle cx="1135" cy="148" r="6" fill="#ecd4a0" opacity=".30"/><circle cx="1037" cy="249" r="2" fill="#ecd4a0" opacity=".30"/><circle cx="556" cy="200" r="6" fill="#ecd4a0" opacity=".36"/><circle cx="498" cy="215" r="3" fill="#ecd4a0" opacity=".36"/><circle cx="585" cy="35" r="6" fill="#ecd4a0" opacity=".24"/><circle cx="138" cy="200" r="7" fill="#ecd4a0" opacity=".30"/><circle cx="375" cy="120" r="3" fill="#ecd4a0" opacity=".45"/><circle cx="41" cy="172" r="8" fill="#ecd4a0" opacity=".30"/><g transform="translate(600 180) rotate(-8)"><circle r="125" fill="none" stroke="#ecd4a0" stroke-opacity=".6" stroke-width="15"/><circle r="96" fill="#ecd4a0" opacity=".18"/><path d="m0-72 20 42 46 7-33 33 8 46L0 34l-41 22 8-46-33-33 46-7z" fill="#ecd4a0" opacity=".7"/><path d="M-170-35h340v70h-340z" fill="#ecd4a0" opacity=".8"/></g><path d="M-30 337C180 285 330 365 520 310s395-6 720-120v190H-30z" fill="#081018" opacity=".14"/><path d="M0 22h1200" stroke="#fff" stroke-opacity=".13" stroke-width="2"/>
</svg>